<svg width="424" height="263" viewBox="0 0 424 263" fill="none" xmlns="http://www.w3.org/2000/svg">
<g clip-path="url(#clip0_255_3770)">
<path d="M395.624 262.041C390.144 258.484 387.384 251.719 387.276 245.324C387.239 243.179 387.797 240.693 389.777 239.739C390.344 239.466 390.978 239.35 391.608 239.404C392.239 239.458 392.842 239.68 393.351 240.045C393.859 240.41 394.254 240.904 394.492 241.473C394.73 242.042 394.801 242.664 394.698 243.27C395.432 241.183 396.385 239.176 397.541 237.278C398.52 235.671 399.895 233.998 401.813 233.846C404.037 233.669 405.896 235.765 406.211 237.908C406.527 240.052 405.723 242.185 404.932 244.21C405.155 243.293 405.612 242.445 406.261 241.743C406.909 241.042 407.729 240.509 408.645 240.194C409.56 239.879 410.543 239.792 411.502 239.941C412.461 240.089 413.367 240.469 414.136 241.045C416.312 242.674 417.029 245.672 416.481 248.285C415.934 250.898 414.327 253.184 412.549 255.217C410.465 257.602 408.051 259.781 405.161 261.165C402.272 262.549 398.855 263.079 395.78 262.14L395.624 262.041Z" fill="#FFEBCE"/>
<path d="M320.668 176.398C321.422 176.034 322.085 175.514 322.61 174.875C323.134 174.235 323.508 173.492 323.704 172.698C323.901 171.903 323.915 171.076 323.747 170.276C323.578 169.475 323.231 168.72 322.729 168.064L336.156 104.825L323.626 104.665L314.301 167.101C313.221 167.992 312.514 169.237 312.317 170.599C312.119 171.961 312.443 173.347 313.228 174.493C314.012 175.639 315.203 176.466 316.575 176.817C317.946 177.168 319.402 177.019 320.668 176.398Z" fill="#FFB8B8"/>
<path d="M381.701 173.114C382.316 172.556 382.798 171.874 383.112 171.116C383.427 170.358 383.566 169.542 383.52 168.726C383.474 167.91 383.244 167.114 382.847 166.394C382.449 165.673 381.894 165.046 381.219 164.556L375.452 100.233L363.398 103.553L372.86 165.971C372.087 167.124 371.777 168.512 371.989 169.873C372.201 171.233 372.92 172.471 374.009 173.351C375.099 174.232 376.484 174.694 377.901 174.651C379.319 174.607 380.671 174.06 381.701 173.114Z" fill="#FFB8B8"/>
<path d="M343.033 256.076L336.457 256.075L333.329 231.471L343.034 231.471L343.033 256.076Z" fill="#FFB8B8"/>
<path d="M331.76 254.253H344.443V261.999H323.775C323.775 259.944 324.616 257.974 326.114 256.522C327.611 255.069 329.642 254.253 331.76 254.253Z" fill="#1E1E1E"/>
<path d="M372.535 256.076L365.959 256.075L362.83 231.471L372.536 231.471L372.535 256.076Z" fill="#FFB8B8"/>
<path d="M361.262 254.253H373.944V261.999H353.276C353.276 259.944 354.118 257.974 355.615 256.522C357.113 255.069 359.144 254.253 361.262 254.253Z" fill="#1E1E1E"/>
<path d="M344.737 80.2808C352.013 80.2808 357.912 74.5592 357.912 67.5014C357.912 60.4435 352.013 54.7219 344.737 54.7219C337.461 54.7219 331.563 60.4435 331.563 67.5014C331.563 74.5592 337.461 80.2808 344.737 80.2808Z" fill="#FFB8B8"/>
<path d="M363.258 240.551C362.722 240.548 362.203 240.366 361.789 240.035C361.376 239.705 361.093 239.245 360.988 238.735L352.082 194.037C352.001 193.627 351.771 193.26 351.434 193.001C351.097 192.742 350.675 192.609 350.246 192.626C349.817 192.643 349.408 192.808 349.093 193.093C348.779 193.377 348.58 193.761 348.533 194.175L343.545 237.714C343.487 238.245 343.233 238.739 342.831 239.104C342.429 239.469 341.905 239.682 341.355 239.704L333.875 240.034C333.571 240.049 333.266 240.006 332.98 239.905C332.694 239.804 332.431 239.649 332.208 239.448C331.984 239.249 331.802 239.008 331.674 238.741C331.545 238.473 331.473 238.183 331.462 237.889L328.594 170.633C328.578 170.294 328.643 169.955 328.783 169.644C328.923 169.332 329.135 169.056 329.402 168.836L331.061 167.463C331.479 167.118 332.011 166.928 332.56 166.927H371.33C371.942 166.928 372.529 167.164 372.962 167.585C373.395 168.005 373.639 168.574 373.64 169.168V237.969C373.641 238.547 373.411 239.103 372.999 239.52C372.588 239.937 372.025 240.184 371.43 240.208L363.357 240.549C363.324 240.55 363.291 240.551 363.258 240.551Z" fill="#1E1E1E"/>
<path d="M343.402 176.713C337.134 176.713 331.609 175.093 328.82 170.368C328.587 169.979 328.477 169.531 328.506 169.082L332.01 117.115C332.039 116.694 331.909 116.278 331.646 115.944L321.812 103.436C321.628 103.202 321.493 102.934 321.415 102.649C321.338 102.364 321.319 102.067 321.36 101.775C321.401 101.483 321.501 101.202 321.654 100.947C321.808 100.693 322.011 100.47 322.254 100.292L337.005 89.4509C337.315 89.2225 337.541 88.9033 337.648 88.5406L338.078 87.0818C338.211 86.6274 338.489 86.2255 338.872 85.9338C339.255 85.6421 339.723 85.4756 340.21 85.4581L351.035 85.054C351.396 85.0423 351.755 85.112 352.083 85.2577C352.411 85.4035 352.701 85.6212 352.927 85.8938L354.079 87.2904C354.226 87.4687 354.408 87.6172 354.614 87.7275L372.716 97.4316C373.074 97.6237 373.372 97.9041 373.582 98.2444C373.791 98.5847 373.904 98.9727 373.909 99.3689L373.909 99.4001L373.902 99.4297C369.682 116.497 369.92 138.071 374.649 167.323C374.662 167.769 374.536 168.208 374.29 168.585C374.043 168.962 373.686 169.259 373.265 169.437C369.346 171.083 355.085 176.713 343.402 176.713Z" fill="#FF9F0D"/>
<path d="M332.379 123.108H320.118C319.803 123.109 319.492 123.047 319.203 122.926C318.914 122.806 318.654 122.629 318.438 122.408C318.222 122.186 318.055 121.924 317.947 121.637C317.839 121.35 317.793 121.045 317.812 120.741C317.994 117.711 318.354 111.948 318.714 107.404C319.233 100.865 325.838 97.6461 325.905 97.614L326.034 97.5527L330.494 100.299L334.644 120.429C334.711 120.754 334.703 121.089 334.62 121.411C334.537 121.732 334.382 122.032 334.165 122.288C333.948 122.545 333.676 122.751 333.367 122.893C333.058 123.035 332.72 123.108 332.379 123.108Z" fill="#FF9F0D"/>
<path d="M365.976 121.998C365.652 121.996 365.333 121.928 365.038 121.799C364.743 121.67 364.48 121.482 364.264 121.248C364.049 121.014 363.887 120.738 363.788 120.44C363.689 120.141 363.656 119.825 363.691 119.513L365.953 99.3197L370.325 96.2139L370.425 96.2246C370.471 96.2299 375.128 96.794 377.215 101.853C378.7 105.456 380.969 112.115 382.19 115.763C382.288 116.056 382.322 116.366 382.291 116.673C382.26 116.979 382.163 117.277 382.008 117.546C381.853 117.815 381.642 118.05 381.389 118.236C381.136 118.422 380.846 118.556 380.537 118.628L366.533 121.932C366.351 121.976 366.164 121.998 365.976 121.998Z" fill="#FF9F0D"/>
<path d="M345.037 80.3699C347.855 76.0456 344.337 64.1419 336.672 63.8313C334.902 63.7596 334.222 61.2616 333.621 59.6457C333.315 58.7088 333.233 57.7164 333.383 56.7443C333.533 55.7722 333.91 54.8462 334.485 54.0371C335.656 52.4247 337.267 51.1617 339.138 50.3905C341.243 49.4526 343.531 48.9648 345.848 48.9602C348.164 48.9557 350.454 49.4346 352.563 50.3644C354.671 51.2942 356.549 52.6531 358.069 54.3489C359.588 56.0447 360.714 58.0378 361.369 60.1929C362.024 62.3479 362.194 64.6145 361.867 66.8388C361.54 69.0631 360.723 71.1931 359.472 73.0842C358.221 74.9753 356.566 76.5833 354.618 77.799C352.67 79.0147 350.475 79.8097 348.183 80.1301L345.037 80.3699Z" fill="#1E1E1E"/>
<path d="M265.476 0H4.25472C3.25925 0.00107146 2.30486 0.38515 1.60095 1.06796C0.897042 1.75077 0.501105 2.67655 0.5 3.64219V175.346C0.501106 176.311 0.897042 177.237 1.60095 177.92C2.30486 178.603 3.25925 178.987 4.25472 178.988H265.476C266.472 178.987 267.426 178.603 268.13 177.92C268.834 177.237 269.23 176.311 269.231 175.346V3.64219C269.23 2.67655 268.834 1.75077 268.13 1.06796C267.426 0.38515 266.472 0.00107146 265.476 0ZM268.158 175.346C268.158 176.036 267.875 176.697 267.372 177.185C266.87 177.673 266.188 177.947 265.476 177.947H4.25472C3.54352 177.947 2.86151 177.673 2.35861 177.185C1.85571 176.697 1.57306 176.036 1.57278 175.346V3.64219C1.57306 2.9523 1.85571 2.29074 2.35861 1.80292C2.86151 1.31509 3.54352 1.0409 4.25472 1.04063H265.476C266.188 1.0409 266.87 1.31509 267.372 1.80292C267.875 2.29074 268.158 2.9523 268.158 3.64219V175.346Z" fill="#FFEBCE"/>
<path d="M268.695 14.5896H1.03639V15.6302H268.695V14.5896Z" fill="#FFEBCE"/>
<path d="M10.155 10.9266C11.9324 10.9266 13.3733 9.52891 13.3733 7.80474C13.3733 6.08057 11.9324 4.68286 10.155 4.68286C8.37757 4.68286 6.93668 6.08057 6.93668 7.80474C6.93668 9.52891 8.37757 10.9266 10.155 10.9266Z" fill="#FFEBCE"/>
<path d="M19.4077 10.9266C21.1852 10.9266 22.6261 9.52891 22.6261 7.80474C22.6261 6.08057 21.1852 4.68286 19.4077 4.68286C17.6303 4.68286 16.1894 6.08057 16.1894 7.80474C16.1894 9.52891 17.6303 10.9266 19.4077 10.9266Z" fill="#FFEBCE"/>
<path d="M28.6604 10.9266C30.4379 10.9266 31.8788 9.52891 31.8788 7.80474C31.8788 6.08057 30.4379 4.68286 28.6604 4.68286C26.883 4.68286 25.4421 6.08057 25.4421 7.80474C25.4421 9.52891 26.883 10.9266 28.6604 10.9266Z" fill="#FFEBCE"/>
<path d="M217.108 50.1917H50.8277C48.6227 50.1917 46.508 49.3421 44.9488 47.8296C43.3896 46.3171 42.5136 44.2658 42.5136 42.1269C42.5136 39.9879 43.3896 37.9366 44.9488 36.4242C46.508 34.9117 48.6227 34.062 50.8277 34.062H217.108C219.313 34.062 221.428 34.9117 222.987 36.4242C224.546 37.9366 225.422 39.9879 225.422 42.1269C225.422 44.2658 224.546 46.3171 222.987 47.8296C221.428 49.3421 219.313 50.1917 217.108 50.1917ZM50.8277 35.1026C48.9072 35.1026 47.0653 35.8427 45.7073 37.16C44.3493 38.4773 43.5864 40.2639 43.5864 42.1269C43.5864 43.9898 44.3493 45.7765 45.7073 47.0938C47.0653 48.4111 48.9072 49.1511 50.8277 49.1511H217.108C219.029 49.1511 220.871 48.4111 222.229 47.0938C223.587 45.7765 224.35 43.9898 224.35 42.1269C224.35 40.2639 223.587 38.4773 222.229 37.16C220.871 35.8427 219.029 35.1026 217.108 35.1026H50.8277Z" fill="#FFEBCE"/>
<path d="M93.7388 91.2965H61.5555C59.3504 91.2965 57.2357 90.4468 55.6766 88.9343C54.1174 87.4219 53.2414 85.3705 53.2414 83.2316C53.2414 81.0927 54.1174 79.0414 55.6766 77.5289C57.2357 76.0164 59.3504 75.1667 61.5555 75.1667H93.7388C95.9438 75.1667 98.0585 76.0164 99.6177 77.5289C101.177 79.0414 102.053 81.0927 102.053 83.2316C102.053 85.3705 101.177 87.4219 99.6177 88.9343C98.0585 90.4468 95.9438 91.2965 93.7388 91.2965ZM61.5555 76.2074C59.635 76.2074 57.7931 76.9474 56.4351 78.2647C55.0771 79.582 54.3142 81.3687 54.3142 83.2316C54.3142 85.0945 55.0771 86.8812 56.4351 88.1985C57.7931 89.5158 59.635 90.2558 61.5555 90.2558H93.7388C95.6593 90.2558 97.5012 89.5158 98.8591 88.1985C100.217 86.8812 100.98 85.0945 100.98 83.2316C100.98 81.3687 100.217 79.582 98.8591 78.2647C97.5012 76.9474 95.6593 76.2074 93.7388 76.2074H61.5555Z" fill="#FFEBCE"/>
<path d="M93.7388 118.353H61.5555C59.3504 118.353 57.2357 117.503 55.6766 115.991C54.1174 114.478 53.2414 112.427 53.2414 110.288C53.2414 108.149 54.1174 106.098 55.6766 104.585C57.2357 103.073 59.3504 102.223 61.5555 102.223H93.7388C95.9438 102.223 98.0585 103.073 99.6177 104.585C101.177 106.098 102.053 108.149 102.053 110.288C102.053 112.427 101.177 114.478 99.6177 115.991C98.0585 117.503 95.9438 118.353 93.7388 118.353ZM61.5555 103.264C59.635 103.264 57.7931 104.004 56.4351 105.321C55.0771 106.638 54.3142 108.425 54.3142 110.288C54.3142 112.151 55.0771 113.938 56.4351 115.255C57.7931 116.572 59.635 117.312 61.5555 117.312H93.7388C95.6593 117.312 97.5012 116.572 98.8591 115.255C100.217 113.938 100.98 112.151 100.98 110.288C100.98 108.425 100.217 106.638 98.8591 105.321C97.5012 104.004 95.6593 103.264 93.7388 103.264H61.5555Z" fill="#FFEBCE"/>
<path d="M93.7388 145.409H61.5555C59.3504 145.409 57.2357 144.56 55.6766 143.047C54.1174 141.535 53.2414 139.483 53.2414 137.344C53.2414 135.205 54.1174 133.154 55.6766 131.642C57.2357 130.129 59.3504 129.28 61.5555 129.28H93.7388C95.9438 129.28 98.0585 130.129 99.6177 131.642C101.177 133.154 102.053 135.205 102.053 137.344C102.053 139.483 101.177 141.535 99.6177 143.047C98.0585 144.56 95.9438 145.409 93.7388 145.409ZM61.5555 130.32C59.635 130.32 57.7931 131.06 56.4351 132.378C55.0771 133.695 54.3142 135.481 54.3142 137.344C54.3142 139.207 55.0771 140.994 56.4351 142.311C57.7931 143.629 59.635 144.369 61.5555 144.369H93.7388C95.6593 144.369 97.5012 143.629 98.8591 142.311C100.217 140.994 100.98 139.207 100.98 137.344C100.98 135.481 100.217 133.695 98.8591 132.378C97.5012 131.06 95.6593 130.32 93.7388 130.32H61.5555Z" fill="#FFEBCE"/>
<path d="M98.5663 45.7693H53.5096C52.5138 45.7693 51.5588 45.3855 50.8546 44.7025C50.1505 44.0194 49.7549 43.093 49.7549 42.1271C49.7549 41.1611 50.1505 40.2347 50.8546 39.5516C51.5588 38.8686 52.5138 38.4849 53.5096 38.4849H98.5663C99.5621 38.4849 100.517 38.8686 101.221 39.5516C101.925 40.2347 102.321 41.1611 102.321 42.1271C102.321 43.093 101.925 44.0194 101.221 44.7025C100.517 45.3855 99.5621 45.7693 98.5663 45.7693Z" fill="#FF9F0D"/>
<path d="M211.476 43.948C210.734 43.948 210.008 43.7344 209.39 43.3341C208.773 42.9339 208.292 42.3651 208.007 41.6996C207.723 41.0341 207.649 40.3017 207.794 39.5952C207.939 38.8887 208.296 38.2397 208.821 37.7303C209.346 37.221 210.015 36.8741 210.744 36.7336C211.472 36.593 212.227 36.6652 212.913 36.9408C213.599 37.2165 214.186 37.6833 214.598 38.2823C215.011 38.8812 215.231 39.5854 215.231 40.3058C215.23 41.2714 214.834 42.1972 214.13 42.88C213.426 43.5628 212.472 43.9469 211.476 43.948ZM211.476 37.7042C210.946 37.7042 210.427 37.8568 209.986 38.1426C209.545 38.4285 209.201 38.8348 208.998 39.3102C208.795 39.7856 208.742 40.3087 208.846 40.8133C208.949 41.318 209.205 41.7815 209.58 42.1454C209.955 42.5092 210.433 42.757 210.953 42.8573C211.473 42.9577 212.013 42.9062 212.503 42.7093C212.993 42.5124 213.412 42.1789 213.706 41.7511C214.001 41.3233 214.158 40.8203 214.158 40.3058C214.157 39.616 213.875 38.9548 213.372 38.4671C212.869 37.9793 212.187 37.705 211.476 37.7042Z" fill="#FFEBCE"/>
<path d="M217.285 47.2429C217.214 47.243 217.144 47.2295 217.079 47.2034C217.014 47.1772 216.955 47.1388 216.905 47.0904L213.137 43.4345C213.087 43.3862 213.047 43.3289 213.02 43.2657C212.993 43.2026 212.98 43.135 212.98 43.0667C212.98 42.9983 212.993 42.9307 213.02 42.8675C213.047 42.8044 213.087 42.7471 213.137 42.6988C213.186 42.6504 213.246 42.6121 213.311 42.586C213.376 42.5598 213.445 42.5464 213.516 42.5464C213.586 42.5464 213.656 42.5598 213.721 42.586C213.786 42.6121 213.845 42.6504 213.895 42.6988L217.664 46.3547C217.739 46.4274 217.79 46.5202 217.811 46.6211C217.831 46.722 217.821 46.8266 217.78 46.9216C217.74 47.0167 217.671 47.098 217.583 47.1551C217.494 47.2123 217.391 47.2429 217.285 47.2429Z" fill="#FFEBCE"/>
<path d="M209.331 88.1748H191.094C189.742 88.1748 188.446 87.654 187.49 86.727C186.535 85.8 185.998 84.5428 185.998 83.2318C185.998 81.9208 186.535 80.6636 187.49 79.7366C188.446 78.8096 189.742 78.2888 191.094 78.2888H209.331C210.682 78.2888 211.978 78.8096 212.934 79.7366C213.89 80.6636 214.426 81.9208 214.426 83.2318C214.426 84.5428 213.89 85.8 212.934 86.727C211.978 87.654 210.682 88.1748 209.331 88.1748Z" fill="#FF9F0D"/>
<path d="M209.331 115.231H191.094C189.742 115.231 188.446 114.71 187.49 113.783C186.535 112.856 185.998 111.599 185.998 110.288C185.998 108.977 186.535 107.72 187.49 106.793C188.446 105.866 189.742 105.345 191.094 105.345H209.331C210.682 105.345 211.978 105.866 212.934 106.793C213.89 107.72 214.426 108.977 214.426 110.288C214.426 111.599 213.89 112.856 212.934 113.783C211.978 114.71 210.682 115.231 209.331 115.231Z" fill="#FF9F0D"/>
<path d="M209.331 142.287H191.094C189.742 142.287 188.446 141.767 187.49 140.84C186.535 139.913 185.998 138.655 185.998 137.344C185.998 136.033 186.535 134.776 187.49 133.849C188.446 132.922 189.742 132.401 191.094 132.401H209.331C210.682 132.401 211.978 132.922 212.934 133.849C213.89 134.776 214.426 136.033 214.426 137.344C214.426 138.655 213.89 139.913 212.934 140.84C211.978 141.767 210.682 142.287 209.331 142.287Z" fill="#FF9F0D"/>
<path d="M422.964 263H289.939C289.797 263 289.66 262.945 289.56 262.848C289.459 262.75 289.403 262.618 289.403 262.48C289.403 262.342 289.459 262.209 289.56 262.112C289.66 262.014 289.797 261.959 289.939 261.959H422.964C423.106 261.959 423.242 262.014 423.343 262.112C423.443 262.209 423.5 262.342 423.5 262.48C423.5 262.618 423.443 262.75 423.343 262.848C423.242 262.945 423.106 263 422.964 263Z" fill="#FFEBCE"/>
</g>
<defs>
<clipPath id="clip0_255_3770">
<rect width="423" height="263" fill="white" transform="translate(0.5)"/>
</clipPath>
</defs>
</svg>
