<svg width="32" height="345" viewBox="0 0 32 345" fill="none" xmlns="http://www.w3.org/2000/svg">
<path d="M16 8V343" stroke="#FF9F0D" stroke-width="2"/>
<path d="M4.71411 8.71398C4.71411 6.50485 6.50497 4.71399 8.71411 4.71399H23.3415C25.5507 4.71399 27.3415 6.50485 27.3415 8.71399V23.3414C27.3415 25.5505 25.5507 27.3414 23.3415 27.3414H8.71411C6.50497 27.3414 4.71411 25.5505 4.71411 23.3414V8.71398Z" fill="#FF9F0D"/>
<path d="M13.1716 2.82842C14.7337 1.26633 17.2663 1.26633 18.8284 2.82843L29.1716 13.1716C30.7337 14.7337 30.7337 17.2663 29.1716 18.8284L18.8284 29.1716C17.2663 30.7337 14.7337 30.7337 13.1716 29.1716L2.82843 18.8284C1.26633 17.2663 1.26633 14.7337 2.82843 13.1716L13.1716 2.82842Z" fill="#FF9F0D"/>
<circle cx="16" cy="341" r="4" fill="#FF9F0D"/>
</svg>
