<svg width="100" height="100" viewBox="0 0 100 100" fill="none" xmlns="http://www.w3.org/2000/svg">
<path d="M37.5004 67.5L22.9171 52.9167C22.5357 52.5307 22.0815 52.2242 21.5809 52.015C21.0802 51.8059 20.543 51.6982 20.0004 51.6982C19.4578 51.6982 18.9206 51.8059 18.4199 52.015C17.9192 52.2242 17.4651 52.5307 17.0837 52.9167C16.6977 53.298 16.3913 53.7522 16.1821 54.2528C15.9729 54.7535 15.8652 55.2907 15.8652 55.8333C15.8652 56.3759 15.9729 56.9131 16.1821 57.4138C16.3913 57.9145 16.6977 58.3686 17.0837 58.75L34.5421 76.2083C36.1671 77.8333 38.7921 77.8333 40.4171 76.2083L84.5837 32.0833C84.9697 31.702 85.2762 31.2478 85.4854 30.7471C85.6945 30.2465 85.8022 29.7093 85.8022 29.1667C85.8022 28.6241 85.6945 28.0868 85.4854 27.5862C85.2762 27.0855 84.9697 26.6313 84.5837 26.25C84.2024 25.864 83.7482 25.5575 83.2475 25.3484C82.7469 25.1392 82.2097 25.0315 81.6671 25.0315C81.1245 25.0315 80.5873 25.1392 80.0866 25.3484C79.5859 25.5575 79.1317 25.864 78.7504 26.25L37.5004 67.5Z" fill="#0CB308"/>
</svg>
