<svg width="793" height="719" viewBox="0 0 793 719" fill="none" xmlns="http://www.w3.org/2000/svg">
<path fill-rule="evenodd" clip-rule="evenodd" d="M379.87 20.6292C462.627 7.77495 557.863 -22.1994 624.842 28.1626C691.79 78.5009 672.755 182.464 700.383 261.624C728.945 343.461 809.863 415.016 789.244 499.214C768.53 583.804 677.134 629.114 600.377 670.014C532.345 706.266 456.561 724.867 379.87 717.352C308.345 710.343 245.386 673.825 188.625 629.665C133.515 586.79 91.234 532.821 61.4351 469.612C27.7169 398.089 -17.6757 319.717 7.09993 244.614C31.8569 169.567 116.842 137.213 184.5 96.5591C245.907 59.662 309.111 31.6199 379.87 20.6292Z" fill="#1E1E1E"/>
</svg>
