<svg width="865" height="748" viewBox="0 0 865 748" fill="none" xmlns="http://www.w3.org/2000/svg">
<path fill-rule="evenodd" clip-rule="evenodd" d="M414.365 5.69925C489.759 15.339 555.166 52.4243 619.297 91.8874C683.652 131.489 746.785 172.886 787.41 235.254C831.864 303.5 880.815 383.478 860.103 461.576C839.476 539.355 748.203 574.215 683.986 625.237C630.797 667.497 581.902 714.533 516.276 734.753C449.65 755.282 380.299 747.685 310.79 740.225C227.574 731.293 125.668 748.141 70.958 686.957C16.2358 625.759 62.6433 530.199 51.3592 450.093C40.1947 370.836 -17.1644 296.327 5.07837 219.276C28.2238 139.098 95.4502 74.1878 171.3 34.6074C244.598 -3.64149 331.765 -4.8619 414.365 5.69925Z" fill="#1E1E1E"/>
</svg>
