<svg width="690" height="664" viewBox="0 0 690 664" fill="none" xmlns="http://www.w3.org/2000/svg">
<path fill-rule="evenodd" clip-rule="evenodd" d="M64.0466 350.33C64.4495 282.444 -25.1803 211.991 14.2313 156.198C55.2091 98.1872 154.484 142.968 223.811 124.159C271.803 111.139 309.873 79.3701 356.874 63.2379C423.356 40.4188 495.99 -24.358 557.276 9.70233C618.348 43.6442 587.709 141.029 612.672 205.401C632.744 257.159 684.273 295.177 689.37 350.33C694.609 407.006 666.164 460.032 640.943 511.277C614.157 565.7 595.592 636.853 537.917 658.053C478.812 679.779 416.31 636.529 356.874 615.693C313.677 600.55 282.664 561.928 237.741 552.822C162.708 537.613 61.26 603.294 11.9193 545.773C-33.0389 493.361 63.64 418.838 64.0466 350.33Z" fill="#1D1D1D"/>
</svg>
