<svg width="52" height="52" viewBox="0 0 52 52" fill="none" xmlns="http://www.w3.org/2000/svg">
<path d="M13.1491 40.5294C12.3556 39.1585 10.8741 38.2354 9.17618 38.2354C6.64209 38.2354 4.58789 40.2896 4.58789 42.8236C4.58789 45.3577 6.64209 47.4118 9.17618 47.4118C10.8741 47.4118 12.3557 46.4886 13.1491 45.1177H18.3527V40.5295H13.1491V40.5294Z" fill="#331F02"/>
<path d="M13.1491 6.88247C12.3556 5.51148 10.8741 4.58838 9.17618 4.58838C6.64209 4.58838 4.58789 6.64258 4.58789 9.17667C4.58789 11.7108 6.64209 13.7649 9.17618 13.7649C10.8741 13.7649 12.3557 12.8417 13.1491 11.4708H18.3527V6.88247H13.1491Z" fill="#331F02"/>
<path d="M36.3652 12.7766H33.7637V14.9101H36.2688C36.797 14.9101 37.2874 14.5198 37.2874 13.864C37.2874 13.1862 36.8353 12.7766 36.3652 12.7766Z" fill="#331F02"/>
<path d="M36.0623 8.97778H33.7637V11.001H35.9798C36.4704 11.001 36.9296 10.6899 36.9296 9.98244C36.9295 9.3167 36.5023 8.97778 36.0623 8.97778Z" fill="#331F02"/>
<path d="M35.7596 37.1587H33.7637V39.8289H35.8283C36.273 39.8289 36.8057 39.3887 36.8057 38.4801C36.8056 37.5853 36.2093 37.1587 35.7596 37.1587Z" fill="#331F02"/>
<path d="M22.9414 0V52H47.412V0H22.9414ZM31.5062 7.05057H36.9432C37.917 7.05057 39.1731 7.88287 39.1731 9.55591C39.1731 10.9354 38.2371 11.6023 37.7691 11.8133C38.3287 11.9785 39.5861 12.5317 39.5861 14.3185C39.5861 14.9884 39.2392 16.8236 36.2687 16.8236H31.5062V7.05057ZM37.1084 44.9495V44.9493L35.2364 41.7973H33.7635V44.9493H31.5061V35.1764H35.9107C38.0825 35.1764 39.1042 37.2029 39.1042 38.4801C39.1042 40.3764 37.7554 41.178 37.5076 41.3156L39.6549 44.9495H37.1084ZM37.4433 30.8789L36.6863 28.6901H33.6443L32.9009 30.8789H30.5885L34.1537 21.1059H36.1907L39.756 30.8789H37.4433Z" fill="#331F02"/>
<path d="M35.1721 23.6799L34.002 27.1349H36.3144L35.1721 23.6799Z" fill="#331F02"/>
</svg>
