<svg width="71" height="71" viewBox="0 0 71 71" fill="none" xmlns="http://www.w3.org/2000/svg">
<g clip-path="url(#clip0_398_2925)">
<path d="M52.9856 4.81302C51.4151 4.81302 49.8659 5.01465 48.3634 5.41361C44.9866 1.95708 40.3736 0 35.5004 0C30.6272 0 26.0142 1.95708 22.6375 5.41361C21.1347 5.01465 19.5859 4.81302 18.0153 4.81302C8.09554 4.81302 0.0253906 12.8832 0.0253906 22.8028C0.0253906 29.8651 4.19068 36.2626 10.5326 39.1661V70.9997H21.9619V39.1568H26.1799V71H33.3914V40.5628H37.6094V71H44.8208V39.1568H49.0388V71H60.4682V39.1662C66.81 36.2627 70.9753 29.8652 70.9753 22.8029C70.9756 12.8832 62.9053 4.81302 52.9856 4.81302Z" fill="#331F02"/>
</g>
<path d="M5.00426 27V16.8182H6.84872V21.4964H6.97301L10.9453 16.8182H13.1974L9.25994 21.3871L13.2322 27H11.0149L7.97727 22.6349L6.84872 23.9673V27H5.00426ZM16.3233 16.8182V27H14.4789V16.8182H16.3233ZM17.8732 18.3643V16.8182H25.9968V18.3643H22.8498V27H21.0202V18.3643H17.8732ZM35.8269 20.2536H33.9675C33.9145 19.9486 33.8167 19.6785 33.6742 19.4432C33.5317 19.2045 33.3543 19.0024 33.1422 18.8366C32.9301 18.6709 32.6882 18.5466 32.4164 18.4638C32.1479 18.3776 31.8579 18.3345 31.5463 18.3345C30.9928 18.3345 30.5023 18.4737 30.0748 18.7521C29.6472 19.0272 29.3124 19.4316 29.0705 19.9652C28.8285 20.4955 28.7076 21.1435 28.7076 21.9091C28.7076 22.688 28.8285 23.3442 29.0705 23.8778C29.3158 24.4081 29.6505 24.8092 30.0748 25.081C30.5023 25.3494 30.9912 25.4837 31.5414 25.4837C31.8463 25.4837 32.1313 25.4439 32.3965 25.3643C32.665 25.2815 32.9052 25.1605 33.1174 25.0014C33.3328 24.8423 33.5134 24.6468 33.6593 24.4148C33.8084 24.1828 33.9112 23.9176 33.9675 23.6193L35.8269 23.6293C35.7573 24.1132 35.6065 24.5672 35.3745 24.9915C35.1458 25.4157 34.8458 25.7902 34.4746 26.1151C34.1034 26.4366 33.6692 26.6884 33.1721 26.8707C32.6749 27.0497 32.123 27.1392 31.5165 27.1392C30.6216 27.1392 29.8229 26.9321 29.1202 26.5178C28.4176 26.1035 27.8641 25.5052 27.4597 24.723C27.0553 23.9408 26.8532 23.0028 26.8532 21.9091C26.8532 20.812 27.057 19.8741 27.4647 19.0952C27.8723 18.313 28.4275 17.7147 29.1301 17.3004C29.8328 16.8861 30.6283 16.679 31.5165 16.679C32.0833 16.679 32.6103 16.7585 33.0975 16.9176C33.5847 17.0767 34.0189 17.3104 34.4 17.6186C34.7812 17.9235 35.0944 18.2981 35.3397 18.7422C35.5882 19.183 35.7507 19.6868 35.8269 20.2536ZM37.516 27V16.8182H39.3604V21.1286H44.0785V16.8182H45.9279V27H44.0785V22.6747H39.3604V27H37.516ZM47.9339 27V16.8182H54.5561V18.3643H49.7784V21.1286H54.2131V22.6747H49.7784V25.4538H54.5959V27H47.9339ZM64.805 16.8182V27H63.1644L58.3668 20.0646H58.2823V27H56.4379V16.8182H58.0884L62.881 23.7585H62.9705V16.8182H64.805Z" fill="#FFF7EB"/>
<defs>
<clipPath id="clip0_398_2925">
<rect width="71" height="71" fill="white"/>
</clipPath>
</defs>
</svg>
