<svg width="328" height="312" viewBox="0 0 328 312" fill="none" xmlns="http://www.w3.org/2000/svg">
<path d="M0 12C0 5.37259 5.37258 0 12 0H316C322.627 0 328 5.37258 328 12V300C328 306.627 322.627 312 316 312H12C5.37259 312 0 306.627 0 300V12Z" fill="#FFF7EB"/>
<path d="M33.1491 60.5294C32.3556 59.1585 30.8741 58.2354 29.1762 58.2354C26.6421 58.2354 24.5879 60.2896 24.5879 62.8236C24.5879 65.3577 26.6421 67.4118 29.1762 67.4118C30.8741 67.4118 32.3557 66.4886 33.1491 65.1177H38.3527V60.5295H33.1491V60.5294Z" fill="#331F02"/>
<path d="M33.1491 26.8825C32.3556 25.5115 30.8741 24.5884 29.1762 24.5884C26.6421 24.5884 24.5879 26.6426 24.5879 29.1767C24.5879 31.7108 26.6421 33.7649 29.1762 33.7649C30.8741 33.7649 32.3557 32.8417 33.1491 31.4708H38.3527V26.8825H33.1491Z" fill="#331F02"/>
<path d="M56.3652 32.7766H53.7637V34.9101H56.2688C56.797 34.9101 57.2874 34.5198 57.2874 33.864C57.2874 33.1862 56.8353 32.7766 56.3652 32.7766Z" fill="#331F02"/>
<path d="M56.0623 28.9778H53.7637V31.001H55.9798C56.4704 31.001 56.9296 30.6899 56.9296 29.9824C56.9295 29.3167 56.5023 28.9778 56.0623 28.9778Z" fill="#331F02"/>
<path d="M55.7596 57.1587H53.7637V59.8289H55.8283C56.273 59.8289 56.8057 59.3887 56.8057 58.4801C56.8056 57.5853 56.2093 57.1587 55.7596 57.1587Z" fill="#331F02"/>
<path d="M42.9414 20V72H67.412V20H42.9414ZM51.5062 27.0506H56.9432C57.917 27.0506 59.1731 27.8829 59.1731 29.5559C59.1731 30.9354 58.2371 31.6023 57.7691 31.8133C58.3287 31.9785 59.5861 32.5317 59.5861 34.3185C59.5861 34.9884 59.2392 36.8236 56.2687 36.8236H51.5062V27.0506ZM57.1084 64.9495V64.9493L55.2364 61.7973H53.7635V64.9493H51.5061V55.1764H55.9107C58.0825 55.1764 59.1042 57.2029 59.1042 58.4801C59.1042 60.3764 57.7554 61.178 57.5076 61.3156L59.6549 64.9495H57.1084ZM57.4433 50.8789L56.6863 48.6901H53.6443L52.9009 50.8789H50.5885L54.1537 41.1059H56.1907L59.756 50.8789H57.4433Z" fill="#331F02"/>
<path d="M55.1721 43.6799L54.002 47.1349H56.3144L55.1721 43.6799Z" fill="#331F02"/>
<g clip-path="url(#clip0_782_5926)">
<path d="M81.9856 224.813C80.4151 224.813 78.8659 225.015 77.3634 225.414C73.9866 221.957 69.3736 220 64.5004 220C59.6272 220 55.0142 221.957 51.6375 225.414C50.1347 225.015 48.5859 224.813 47.0153 224.813C37.0955 224.813 29.0254 232.883 29.0254 242.803C29.0254 249.865 33.1907 256.263 39.5326 259.166V291H50.9619V259.157H55.1799V291H62.3914V260.563H66.6094V291H73.8208V259.157H78.0388V291H89.4682V259.166C95.81 256.263 99.9753 249.865 99.9753 242.803C99.9756 232.883 91.9053 224.813 81.9856 224.813Z" fill="#331F02"/>
</g>
<path d="M34.0043 247V236.818H35.8487V241.496H35.973L39.9453 236.818H42.1974L38.2599 241.387L42.2322 247H40.0149L36.9773 242.635L35.8487 243.967V247H34.0043ZM45.3233 236.818V247H43.4789V236.818H45.3233ZM46.8732 238.364V236.818H54.9968V238.364H51.8498V247H50.0202V238.364H46.8732ZM64.8269 240.254H62.9675C62.9145 239.949 62.8167 239.679 62.6742 239.443C62.5317 239.205 62.3543 239.002 62.1422 238.837C61.9301 238.671 61.6882 238.547 61.4164 238.464C61.1479 238.378 60.8579 238.335 60.5463 238.335C59.9928 238.335 59.5023 238.474 59.0748 238.752C58.6472 239.027 58.3124 239.432 58.0705 239.965C57.8285 240.496 57.7076 241.143 57.7076 241.909C57.7076 242.688 57.8285 243.344 58.0705 243.878C58.3158 244.408 58.6505 244.809 59.0748 245.081C59.5023 245.349 59.9912 245.484 60.5414 245.484C60.8463 245.484 61.1313 245.444 61.3965 245.364C61.665 245.281 61.9052 245.161 62.1174 245.001C62.3328 244.842 62.5134 244.647 62.6593 244.415C62.8084 244.183 62.9112 243.918 62.9675 243.619L64.8269 243.629C64.7573 244.113 64.6065 244.567 64.3745 244.991C64.1458 245.416 63.8458 245.79 63.4746 246.115C63.1034 246.437 62.6692 246.688 62.1721 246.871C61.6749 247.05 61.123 247.139 60.5165 247.139C59.6216 247.139 58.8229 246.932 58.1202 246.518C57.4176 246.103 56.8641 245.505 56.4597 244.723C56.0553 243.941 55.8532 243.003 55.8532 241.909C55.8532 240.812 56.057 239.874 56.4647 239.095C56.8723 238.313 57.4275 237.715 58.1301 237.3C58.8328 236.886 59.6283 236.679 60.5165 236.679C61.0833 236.679 61.6103 236.759 62.0975 236.918C62.5847 237.077 63.0189 237.31 63.4 237.619C63.7812 237.924 64.0944 238.298 64.3397 238.742C64.5882 239.183 64.7507 239.687 64.8269 240.254ZM66.516 247V236.818H68.3604V241.129H73.0785V236.818H74.9279V247H73.0785V242.675H68.3604V247H66.516ZM76.9339 247V236.818H83.5561V238.364H78.7784V241.129H83.2131V242.675H78.7784V245.454H83.5959V247H76.9339ZM93.805 236.818V247H92.1644L87.3668 240.065H87.2823V247H85.4379V236.818H87.0884L91.881 243.759H91.9705V236.818H93.805Z" fill="#FFF7EB"/>
<rect x="229" y="114" width="31" height="28" rx="14" fill="#FFC56D"/>
<path d="M233.557 124.364V122.818H241.68V124.364H238.533V133H236.704V124.364H233.557ZM247.167 127.168V128.65H242.583V127.168H247.167ZM249.03 133L253.36 124.429V124.359H248.334V122.818H255.269V124.394L250.944 133H249.03Z" fill="#1D1D1D"/>
<rect x="278" y="114" width="33" height="28" rx="14" fill="#FFC56D"/>
<path d="M282.557 124.364V122.818H290.68V124.364H287.533V133H285.704V124.364H282.557ZM296.167 127.168V128.65H291.583V127.168H296.167ZM301.659 133.139C300.92 133.139 300.264 133.015 299.69 132.766C299.12 132.518 298.673 132.178 298.348 131.747C298.026 131.313 297.867 130.821 297.871 130.271C297.867 129.843 297.96 129.45 298.149 129.092C298.338 128.734 298.593 128.436 298.915 128.197C299.239 127.955 299.601 127.801 299.998 127.735V127.665C299.475 127.549 299.05 127.283 298.726 126.865C298.404 126.444 298.245 125.959 298.248 125.408C298.245 124.885 298.391 124.417 298.686 124.006C298.981 123.595 299.385 123.272 299.899 123.037C300.413 122.798 300.999 122.679 301.659 122.679C302.312 122.679 302.894 122.798 303.404 123.037C303.918 123.272 304.322 123.595 304.617 124.006C304.915 124.417 305.064 124.885 305.064 125.408C305.064 125.959 304.9 126.444 304.572 126.865C304.247 127.283 303.828 127.549 303.314 127.665V127.735C303.712 127.801 304.07 127.955 304.388 128.197C304.71 128.436 304.965 128.734 305.154 129.092C305.346 129.45 305.442 129.843 305.442 130.271C305.442 130.821 305.28 131.313 304.955 131.747C304.63 132.178 304.183 132.518 303.613 132.766C303.046 133.015 302.395 133.139 301.659 133.139ZM301.659 131.717C302.04 131.717 302.372 131.653 302.653 131.523C302.935 131.391 303.154 131.205 303.309 130.967C303.465 130.728 303.545 130.453 303.548 130.141C303.545 129.817 303.46 129.53 303.295 129.281C303.132 129.029 302.908 128.832 302.623 128.69C302.342 128.547 302.02 128.476 301.659 128.476C301.294 128.476 300.97 128.547 300.684 128.69C300.399 128.832 300.174 129.029 300.008 129.281C299.846 129.53 299.766 129.817 299.77 130.141C299.766 130.453 299.843 130.728 299.998 130.967C300.154 131.202 300.373 131.386 300.655 131.518C300.94 131.651 301.274 131.717 301.659 131.717ZM301.659 127.079C301.97 127.079 302.246 127.016 302.484 126.89C302.726 126.764 302.917 126.588 303.056 126.363C303.195 126.138 303.266 125.877 303.27 125.582C303.266 125.291 303.197 125.036 303.061 124.817C302.925 124.595 302.736 124.424 302.494 124.305C302.252 124.182 301.974 124.121 301.659 124.121C301.337 124.121 301.054 124.182 300.809 124.305C300.567 124.424 300.378 124.595 300.242 124.817C300.109 125.036 300.045 125.291 300.048 125.582C300.045 125.877 300.111 126.138 300.247 126.363C300.386 126.585 300.577 126.761 300.819 126.89C301.064 127.016 301.344 127.079 301.659 127.079Z" fill="#1D1D1D"/>
<rect x="278" y="69" width="40" height="28" rx="14" fill="#FFC56D"/>
<path d="M282.557 79.3643V77.8182H290.68V79.3643H287.533V88H285.704V79.3643H282.557ZM296.167 82.1683V83.6499H291.583V82.1683H296.167ZM302.181 77.8182V88H300.336V79.6129H300.277L297.895 81.1342V79.4439L300.426 77.8182H302.181ZM308.53 88.1939C307.711 88.1939 307.008 87.9867 306.422 87.5724C305.838 87.1548 305.389 86.5533 305.074 85.7678C304.763 84.9789 304.607 84.0294 304.607 82.919C304.61 81.8087 304.768 80.8641 305.079 80.0852C305.394 79.303 305.843 78.7064 306.427 78.2955C307.013 77.8845 307.714 77.679 308.53 77.679C309.345 77.679 310.046 77.8845 310.633 78.2955C311.219 78.7064 311.668 79.303 311.98 80.0852C312.295 80.8674 312.452 81.812 312.452 82.919C312.452 84.0327 312.295 84.9839 311.98 85.7727C311.668 86.5582 311.219 87.1581 310.633 87.5724C310.049 87.9867 309.348 88.1939 308.53 88.1939ZM308.53 86.6378C309.166 86.6378 309.668 86.3246 310.036 85.6982C310.407 85.0684 310.593 84.142 310.593 82.919C310.593 82.1103 310.508 81.4309 310.339 80.8807C310.17 80.3305 309.932 79.9162 309.623 79.6378C309.315 79.3561 308.951 79.2152 308.53 79.2152C307.897 79.2152 307.396 79.5301 307.028 80.1598C306.66 80.7862 306.475 81.706 306.471 82.919C306.468 83.7311 306.549 84.4138 306.715 84.9673C306.884 85.5208 307.123 85.9384 307.431 86.2202C307.739 86.4986 308.105 86.6378 308.53 86.6378Z" fill="#1D1D1D"/>
<rect x="229" y="69" width="33" height="28" rx="14" fill="#FFC56D"/>
<path d="M233.557 79.3643V77.8182H241.68V79.3643H238.533V88H236.704V79.3643H233.557ZM247.167 82.1683V83.6499H242.583V82.1683H247.167ZM252.574 77.679C253.062 77.6823 253.536 77.7685 253.996 77.9375C254.46 78.1032 254.878 78.375 255.249 78.7528C255.62 79.1274 255.915 79.6295 256.134 80.2592C256.353 80.889 256.462 81.6679 256.462 82.5959C256.465 83.4709 256.373 84.2531 256.184 84.9425C255.998 85.6286 255.731 86.2086 255.383 86.6825C255.035 87.1565 254.616 87.5178 254.126 87.7663C253.635 88.0149 253.083 88.1392 252.47 88.1392C251.827 88.1392 251.257 88.0133 250.76 87.7614C250.266 87.5095 249.867 87.1648 249.562 86.7273C249.257 86.2898 249.069 85.7893 249 85.2259H250.814C250.907 85.6302 251.096 85.9517 251.381 86.1903C251.67 86.4257 252.032 86.5433 252.47 86.5433C253.176 86.5433 253.72 86.2367 254.101 85.6236C254.482 85.0104 254.672 84.1586 254.672 83.0682H254.603C254.44 83.3598 254.23 83.6117 253.971 83.8239C253.713 84.0327 253.42 84.1934 253.091 84.3061C252.767 84.4188 252.422 84.4751 252.057 84.4751C251.461 84.4751 250.924 84.3326 250.447 84.0476C249.973 83.7625 249.596 83.3714 249.318 82.8743C249.043 82.3771 248.904 81.8087 248.9 81.169C248.9 80.5062 249.053 79.9112 249.358 79.3842C249.666 78.8539 250.095 78.4363 250.645 78.1314C251.196 77.8232 251.839 77.6723 252.574 77.679ZM252.579 79.1705C252.221 79.1705 251.898 79.2583 251.61 79.4339C251.325 79.6063 251.099 79.8416 250.934 80.1399C250.771 80.4349 250.69 80.7647 250.69 81.1293C250.693 81.4905 250.775 81.8187 250.934 82.1136C251.096 82.4086 251.317 82.6423 251.595 82.8146C251.877 82.987 252.198 83.0732 252.559 83.0732C252.828 83.0732 253.078 83.0218 253.31 82.919C253.542 82.8163 253.744 82.6738 253.917 82.4915C254.092 82.3059 254.228 82.0954 254.324 81.8601C254.424 81.6248 254.472 81.3762 254.469 81.1143C254.469 80.7663 254.386 80.4448 254.22 80.1499C254.058 79.8549 253.834 79.6179 253.549 79.4389C253.267 79.2599 252.944 79.1705 252.579 79.1705Z" fill="#1D1D1D"/>
<rect x="229" y="25" width="39" height="28" rx="14" fill="#FFC56D"/>
<path d="M233.557 35.3643V33.8182H241.68V35.3643H238.533V44H236.704V35.3643H233.557ZM247.167 38.1683V39.6499H242.583V38.1683H247.167ZM253.181 33.8182V44H251.336V35.6129H251.277L248.895 37.1342V35.4439L251.426 33.8182H253.181ZM255.766 44V42.6676L259.301 39.2024C259.639 38.861 259.921 38.5578 260.146 38.2926C260.372 38.0275 260.541 37.7706 260.653 37.522C260.766 37.2734 260.822 37.0083 260.822 36.7266C260.822 36.4051 260.749 36.13 260.604 35.9013C260.458 35.6693 260.257 35.4903 260.002 35.3643C259.747 35.2384 259.457 35.1754 259.132 35.1754C258.797 35.1754 258.504 35.245 258.252 35.3842C258 35.5201 257.805 35.714 257.665 35.9659C257.529 36.2178 257.461 36.5178 257.461 36.8658H255.706C255.706 36.2195 255.854 35.6577 256.149 35.1804C256.444 34.7031 256.85 34.3336 257.367 34.0717C257.887 33.8099 258.484 33.679 259.157 33.679C259.84 33.679 260.439 33.8066 260.956 34.0618C261.474 34.317 261.875 34.6667 262.16 35.1108C262.448 35.5549 262.592 36.062 262.592 36.6321C262.592 37.0133 262.519 37.3878 262.373 37.7557C262.228 38.1236 261.971 38.5312 261.603 38.9787C261.238 39.4261 260.726 39.968 260.067 40.6044L258.312 42.3892V42.4588H262.746V44H255.766Z" fill="#1D1D1D"/>
<rect x="278" y="25" width="37" height="28" rx="14" fill="#FFC56D"/>
<path d="M282.557 35.3643V33.8182H290.68V35.3643H287.533V44H285.704V35.3643H282.557ZM296.167 38.1683V39.6499H291.583V38.1683H296.167ZM302.181 33.8182V44H300.336V35.6129H300.277L297.895 37.1342V35.4439L300.426 33.8182H302.181ZM308.907 33.8182V44H307.063V35.6129H307.003L304.622 37.1342V35.4439L307.153 33.8182H308.907Z" fill="#1D1D1D"/>
<rect x="181" y="25" width="39" height="28" rx="14" fill="#FFC56D"/>
<path d="M185.557 35.3643V33.8182H193.68V35.3643H190.533V44H188.704V35.3643H185.557ZM199.167 38.1683V39.6499H194.583V38.1683H199.167ZM205.181 33.8182V44H203.336V35.6129H203.277L200.895 37.1342V35.4439L203.426 33.8182H205.181ZM211.42 44.1392C210.704 44.1392 210.068 44.0166 209.511 43.7713C208.958 43.526 208.52 43.1847 208.199 42.7472C207.877 42.3097 207.706 41.8042 207.687 41.2308H209.556C209.573 41.5059 209.664 41.7462 209.829 41.9517C209.995 42.1539 210.215 42.3113 210.491 42.424C210.766 42.5367 211.074 42.593 211.415 42.593C211.78 42.593 212.103 42.5301 212.385 42.4041C212.666 42.2749 212.887 42.0959 213.046 41.8672C213.205 41.6385 213.283 41.375 213.28 41.0767C213.283 40.7685 213.203 40.4967 213.041 40.2614C212.879 40.026 212.643 39.8421 212.335 39.7095C212.03 39.5769 211.662 39.5107 211.231 39.5107H210.331V38.0888H211.231C211.586 38.0888 211.896 38.0275 212.161 37.9048C212.43 37.7822 212.64 37.6098 212.792 37.3878C212.945 37.1624 213.019 36.9022 213.016 36.6072C213.019 36.3189 212.955 36.0687 212.822 35.8565C212.693 35.6411 212.509 35.4737 212.27 35.3544C212.035 35.2351 211.758 35.1754 211.44 35.1754C211.129 35.1754 210.84 35.2318 210.575 35.3445C210.31 35.4571 210.096 35.6179 209.934 35.8267C209.771 36.0322 209.685 36.2775 209.675 36.5625H207.9C207.914 35.9924 208.078 35.492 208.393 35.0611C208.711 34.6269 209.135 34.2888 209.665 34.0469C210.196 33.8016 210.791 33.679 211.45 33.679C212.13 33.679 212.72 33.8066 213.22 34.0618C213.724 34.3137 214.113 34.6534 214.388 35.081C214.663 35.5085 214.801 35.9808 214.801 36.4979C214.804 37.0713 214.635 37.5518 214.294 37.9396C213.956 38.3274 213.512 38.581 212.961 38.7003V38.7798C213.677 38.8793 214.226 39.1444 214.607 39.5753C214.992 40.0028 215.182 40.5348 215.179 41.1712C215.179 41.7412 215.016 42.2517 214.692 42.7024C214.37 43.1499 213.926 43.5012 213.359 43.7564C212.796 44.0116 212.149 44.1392 211.42 44.1392Z" fill="#1D1D1D"/>
<rect x="133" y="25" width="40" height="28" rx="14" fill="#FFC56D"/>
<path d="M137.557 35.3643V33.8182H145.68V35.3643H142.533V44H140.704V35.3643H137.557ZM151.167 38.1683V39.6499H146.583V38.1683H151.167ZM157.181 33.8182V44H155.336V35.6129H155.277L152.895 37.1342V35.4439L155.426 33.8182H157.181ZM159.582 42.1108V40.6442L163.903 33.8182H165.126V35.9062H164.38L161.471 40.5149V40.5945H167.502V42.1108H159.582ZM164.439 44V41.6634L164.459 41.0071V33.8182H166.199V44H164.439Z" fill="#1D1D1D"/>
<rect x="26" y="175" width="39" height="28" rx="14" fill="#FFC56D"/>
<path d="M30.5568 185.364V183.818H38.6804V185.364H35.5334V194H33.7038V185.364H30.5568ZM44.1665 188.168V189.65H39.5827V188.168H44.1665ZM45.6841 194V192.668L49.2189 189.202C49.557 188.861 49.8387 188.558 50.0641 188.293C50.2895 188.027 50.4585 187.771 50.5712 187.522C50.6839 187.273 50.7402 187.008 50.7402 186.727C50.7402 186.405 50.6673 186.13 50.5215 185.901C50.3757 185.669 50.1751 185.49 49.9199 185.364C49.6647 185.238 49.3747 185.175 49.0499 185.175C48.7151 185.175 48.4218 185.245 48.1699 185.384C47.918 185.52 47.7225 185.714 47.5833 185.966C47.4474 186.218 47.3794 186.518 47.3794 186.866H45.6245C45.6245 186.219 45.772 185.658 46.0669 185.18C46.3619 184.703 46.7679 184.334 47.285 184.072C47.8053 183.81 48.4019 183.679 49.0748 183.679C49.7575 183.679 50.3574 183.807 50.8745 184.062C51.3915 184.317 51.7926 184.667 52.0776 185.111C52.3659 185.555 52.5101 186.062 52.5101 186.632C52.5101 187.013 52.4372 187.388 52.2914 187.756C52.1455 188.124 51.8887 188.531 51.5208 188.979C51.1562 189.426 50.6441 189.968 49.9846 190.604L48.2296 192.389V192.459H52.6642V194H45.6841ZM58.5208 183.818V194H56.6763V185.613H56.6167L54.2353 187.134V185.444L56.7658 183.818H58.5208Z" fill="#1D1D1D"/>
<rect x="75" y="175" width="41" height="28" rx="14" fill="#FFC56D"/>
<path d="M79.5568 185.364V183.818H87.6804V185.364H84.5334V194H82.7038V185.364H79.5568ZM93.1665 188.168V189.65H88.5827V188.168H93.1665ZM94.6841 194V192.668L98.2189 189.202C98.557 188.861 98.8387 188.558 99.0641 188.293C99.2895 188.027 99.4585 187.771 99.5712 187.522C99.6839 187.273 99.7402 187.008 99.7402 186.727C99.7402 186.405 99.6673 186.13 99.5215 185.901C99.3757 185.669 99.1751 185.49 98.9199 185.364C98.6647 185.238 98.3747 185.175 98.0499 185.175C97.7151 185.175 97.4218 185.245 97.1699 185.384C96.918 185.52 96.7225 185.714 96.5833 185.966C96.4474 186.218 96.3794 186.518 96.3794 186.866H94.6245C94.6245 186.219 94.772 185.658 95.0669 185.18C95.3619 184.703 95.7679 184.334 96.285 184.072C96.8053 183.81 97.4019 183.679 98.0748 183.679C98.7575 183.679 99.3574 183.807 99.8745 184.062C100.392 184.317 100.793 184.667 101.078 185.111C101.366 185.555 101.51 186.062 101.51 186.632C101.51 187.013 101.437 187.388 101.291 187.756C101.146 188.124 100.889 188.531 100.521 188.979C100.156 189.426 99.6441 189.968 98.9846 190.604L97.2296 192.389V192.459H101.664V194H94.6841ZM103.379 194V192.668L106.914 189.202C107.252 188.861 107.534 188.558 107.759 188.293C107.985 188.027 108.154 187.771 108.267 187.522C108.379 187.273 108.436 187.008 108.436 186.727C108.436 186.405 108.363 186.13 108.217 185.901C108.071 185.669 107.87 185.49 107.615 185.364C107.36 185.238 107.07 185.175 106.745 185.175C106.41 185.175 106.117 185.245 105.865 185.384C105.613 185.52 105.418 185.714 105.279 185.966C105.143 186.218 105.075 186.518 105.075 186.866H103.32C103.32 186.219 103.467 185.658 103.762 185.18C104.057 184.703 104.463 184.334 104.98 184.072C105.501 183.81 106.097 183.679 106.77 183.679C107.453 183.679 108.053 183.807 108.57 184.062C109.087 184.317 109.488 184.667 109.773 185.111C110.061 185.555 110.205 186.062 110.205 186.632C110.205 187.013 110.133 187.388 109.987 187.756C109.841 188.124 109.584 188.531 109.216 188.979C108.852 189.426 108.339 189.968 107.68 190.604L105.925 192.389V192.459H110.36V194H103.379Z" fill="#1D1D1D"/>
<rect x="75" y="130" width="39" height="28" rx="14" fill="#FFC56D"/>
<path d="M79.5568 140.364V138.818H87.6804V140.364H84.5334V149H82.7038V140.364H79.5568ZM93.1665 143.168V144.65H88.5827V143.168H93.1665ZM99.1809 138.818V149H97.3365V140.613H97.2768L94.8954 142.134V140.444L97.426 138.818H99.1809ZM105.301 138.679C105.788 138.682 106.262 138.768 106.723 138.938C107.187 139.103 107.604 139.375 107.976 139.753C108.347 140.127 108.642 140.629 108.861 141.259C109.079 141.889 109.189 142.668 109.189 143.596C109.192 144.471 109.099 145.253 108.91 145.942C108.725 146.629 108.458 147.209 108.11 147.683C107.762 148.156 107.343 148.518 106.852 148.766C106.362 149.015 105.81 149.139 105.197 149.139C104.554 149.139 103.983 149.013 103.486 148.761C102.992 148.509 102.593 148.165 102.288 147.727C101.983 147.29 101.796 146.789 101.726 146.226H103.541C103.634 146.63 103.823 146.952 104.108 147.19C104.396 147.426 104.759 147.543 105.197 147.543C105.903 147.543 106.446 147.237 106.827 146.624C107.208 146.01 107.399 145.159 107.399 144.068H107.329C107.167 144.36 106.956 144.612 106.698 144.824C106.439 145.033 106.146 145.193 105.818 145.306C105.493 145.419 105.148 145.475 104.784 145.475C104.187 145.475 103.65 145.333 103.173 145.048C102.699 144.763 102.323 144.371 102.045 143.874C101.769 143.377 101.63 142.809 101.627 142.169C101.627 141.506 101.779 140.911 102.084 140.384C102.393 139.854 102.822 139.436 103.372 139.131C103.922 138.823 104.565 138.672 105.301 138.679ZM105.306 140.17C104.948 140.17 104.625 140.258 104.336 140.434C104.051 140.606 103.826 140.842 103.66 141.14C103.498 141.435 103.417 141.765 103.417 142.129C103.42 142.491 103.501 142.819 103.66 143.114C103.823 143.409 104.043 143.642 104.322 143.815C104.603 143.987 104.925 144.073 105.286 144.073C105.555 144.073 105.805 144.022 106.037 143.919C106.269 143.816 106.471 143.674 106.643 143.491C106.819 143.306 106.955 143.095 107.051 142.86C107.15 142.625 107.198 142.376 107.195 142.114C107.195 141.766 107.112 141.445 106.947 141.15C106.784 140.855 106.56 140.618 106.275 140.439C105.994 140.26 105.671 140.17 105.306 140.17Z" fill="#1D1D1D"/>
<rect x="26" y="130" width="39" height="28" rx="14" fill="#FFC56D"/>
<path d="M30.5568 140.364V138.818H38.6804V140.364H35.5334V149H33.7038V140.364H30.5568ZM44.1665 143.168V144.65H39.5827V143.168H44.1665ZM50.1809 138.818V149H48.3365V140.613H48.2768L45.8954 142.134V140.444L48.426 138.818H50.1809ZM56.3855 149.139C55.6464 149.139 54.9901 149.015 54.4167 148.766C53.8467 148.518 53.3992 148.178 53.0744 147.747C52.7529 147.313 52.5938 146.821 52.5971 146.271C52.5938 145.843 52.6866 145.45 52.8755 145.092C53.0645 144.734 53.3197 144.436 53.6412 144.197C53.966 143.955 54.3272 143.801 54.725 143.735V143.665C54.2013 143.549 53.777 143.283 53.4522 142.865C53.1307 142.444 52.9717 141.959 52.975 141.408C52.9717 140.885 53.1175 140.417 53.4125 140.006C53.7074 139.595 54.1118 139.272 54.6255 139.037C55.1393 138.798 55.7259 138.679 56.3855 138.679C57.0384 138.679 57.6201 138.798 58.1305 139.037C58.6442 139.272 59.0486 139.595 59.3436 140.006C59.6419 140.417 59.791 140.885 59.791 141.408C59.791 141.959 59.627 142.444 59.2988 142.865C58.974 143.283 58.5547 143.549 58.041 143.665V143.735C58.4387 143.801 58.7967 143.955 59.1149 144.197C59.4364 144.436 59.6916 144.734 59.8805 145.092C60.0727 145.45 60.1689 145.843 60.1689 146.271C60.1689 146.821 60.0065 147.313 59.6816 147.747C59.3568 148.178 58.9094 148.518 58.3393 148.766C57.7726 149.015 57.1213 149.139 56.3855 149.139ZM56.3855 147.717C56.7666 147.717 57.0981 147.653 57.3798 147.523C57.6615 147.391 57.8803 147.205 58.036 146.967C58.1918 146.728 58.2714 146.453 58.2747 146.141C58.2714 145.817 58.1868 145.53 58.0211 145.281C57.8587 145.029 57.635 144.832 57.35 144.69C57.0682 144.547 56.7467 144.476 56.3855 144.476C56.0209 144.476 55.6961 144.547 55.411 144.69C55.126 144.832 54.9006 145.029 54.7349 145.281C54.5725 145.53 54.493 145.817 54.4963 146.141C54.493 146.453 54.5692 146.728 54.725 146.967C54.8807 147.202 55.0995 147.386 55.3812 147.518C55.6663 147.651 56.001 147.717 56.3855 147.717ZM56.3855 143.079C56.697 143.079 56.9721 143.016 57.2108 142.89C57.4527 142.764 57.6433 142.588 57.7825 142.363C57.9217 142.138 57.993 141.877 57.9963 141.582C57.993 141.291 57.9234 141.036 57.7875 140.817C57.6516 140.595 57.4627 140.424 57.2207 140.305C56.9788 140.182 56.7003 140.121 56.3855 140.121C56.064 140.121 55.7806 140.182 55.5353 140.305C55.2934 140.424 55.1045 140.595 54.9686 140.817C54.836 141.036 54.7714 141.291 54.7747 141.582C54.7714 141.877 54.8377 142.138 54.9735 142.363C55.1127 142.585 55.3033 142.761 55.5453 142.89C55.7905 143.016 56.0706 143.079 56.3855 143.079Z" fill="#1D1D1D"/>
<rect x="26" y="86" width="39" height="28" rx="14" fill="#FFC56D"/>
<path d="M30.5568 96.3643V94.8182H38.6804V96.3643H35.5334V105H33.7038V96.3643H30.5568ZM44.1665 99.1683V100.65H39.5827V99.1683H44.1665ZM50.1809 94.8182V105H48.3365V96.6129H48.2768L45.8954 98.1342V96.4439L48.426 94.8182H50.1809ZM53.139 105L57.4693 96.429V96.3594H52.443V94.8182H59.3784V96.3942L55.0531 105H53.139Z" fill="#1D1D1D"/>
<rect x="75" y="86" width="39" height="28" rx="14" fill="#FFC56D"/>
<path d="M79.5568 96.3643V94.8182H87.6804V96.3643H84.5334V105H82.7038V96.3643H79.5568ZM93.1665 99.1683V100.65H88.5827V99.1683H93.1665ZM99.1809 94.8182V105H97.3365V96.6129H97.2768L94.8954 98.1342V96.4439L97.426 94.8182H99.1809ZM105.495 105.139C105.008 105.136 104.532 105.051 104.068 104.886C103.604 104.717 103.186 104.443 102.815 104.065C102.444 103.684 102.149 103.179 101.93 102.549C101.711 101.916 101.604 101.132 101.607 100.197C101.607 99.3258 101.7 98.5485 101.885 97.8658C102.071 97.183 102.338 96.6063 102.686 96.1357C103.034 95.6617 103.453 95.3004 103.944 95.0518C104.438 94.8033 104.989 94.679 105.599 94.679C106.239 94.679 106.806 94.8049 107.3 95.0568C107.797 95.3087 108.198 95.6534 108.503 96.0909C108.808 96.5251 108.997 97.0156 109.069 97.5625H107.255C107.162 97.1714 106.971 96.8598 106.683 96.6278C106.398 96.3925 106.037 96.2749 105.599 96.2749C104.893 96.2749 104.35 96.5814 103.969 97.1946C103.591 97.8078 103.4 98.6496 103.397 99.7202H103.466C103.629 99.4285 103.839 99.1783 104.098 98.9695C104.356 98.7607 104.648 98.5999 104.973 98.4872C105.301 98.3712 105.647 98.3132 106.012 98.3132C106.608 98.3132 107.144 98.4557 107.618 98.7408C108.095 99.0258 108.473 99.4186 108.751 99.919C109.03 100.416 109.167 100.986 109.164 101.629C109.167 102.299 109.015 102.9 108.706 103.434C108.398 103.964 107.969 104.382 107.419 104.687C106.869 104.992 106.227 105.143 105.495 105.139ZM105.485 103.648C105.846 103.648 106.169 103.56 106.454 103.384C106.739 103.209 106.965 102.972 107.131 102.673C107.296 102.375 107.377 102.04 107.374 101.669C107.377 101.304 107.298 100.975 107.135 100.68C106.976 100.385 106.756 100.151 106.474 99.9787C106.193 99.8063 105.871 99.7202 105.51 99.7202C105.241 99.7202 104.991 99.7715 104.759 99.8743C104.527 99.977 104.325 100.12 104.153 100.302C103.98 100.481 103.844 100.69 103.745 100.928C103.649 101.164 103.599 101.415 103.596 101.684C103.599 102.039 103.682 102.365 103.844 102.663C104.007 102.962 104.23 103.2 104.515 103.379C104.8 103.558 105.124 103.648 105.485 103.648Z" fill="#1D1D1D"/>
<rect x="122" y="86" width="39" height="28" rx="14" fill="#FFC56D"/>
<path d="M126.557 96.3643V94.8182H134.68V96.3643H131.533V105H129.704V96.3643H126.557ZM140.167 99.1683V100.65H135.583V99.1683H140.167ZM146.181 94.8182V105H144.336V96.6129H144.277L141.895 98.1342V96.4439L144.426 94.8182H146.181ZM152.306 105.139C151.643 105.139 151.05 105.015 150.526 104.766C150.002 104.514 149.586 104.17 149.278 103.732C148.973 103.295 148.811 102.794 148.791 102.231H150.581C150.614 102.648 150.795 102.99 151.123 103.255C151.451 103.517 151.845 103.648 152.306 103.648C152.667 103.648 152.989 103.565 153.27 103.399C153.552 103.233 153.774 103.003 153.937 102.708C154.099 102.413 154.179 102.077 154.175 101.699C154.179 101.314 154.097 100.973 153.932 100.675C153.766 100.376 153.539 100.143 153.251 99.9737C152.962 99.8014 152.631 99.7152 152.256 99.7152C151.951 99.7119 151.651 99.7682 151.356 99.8842C151.061 100 150.828 100.153 150.655 100.342L148.99 100.068L149.522 94.8182H155.428V96.3594H151.048L150.755 99.0589H150.814C151.003 98.8369 151.27 98.6529 151.615 98.5071C151.96 98.358 152.337 98.2834 152.748 98.2834C153.365 98.2834 153.915 98.4292 154.399 98.7209C154.883 99.0092 155.264 99.407 155.542 99.9141C155.821 100.421 155.96 101.001 155.96 101.654C155.96 102.327 155.804 102.927 155.493 103.454C155.184 103.978 154.755 104.39 154.205 104.692C153.658 104.99 153.025 105.139 152.306 105.139Z" fill="#1D1D1D"/>
<rect x="122" y="130" width="41" height="28" rx="14" fill="#FFC56D"/>
<path d="M126.557 140.364V138.818H134.68V140.364H131.533V149H129.704V140.364H126.557ZM140.167 143.168V144.65H135.583V143.168H140.167ZM141.684 149V147.668L145.219 144.202C145.557 143.861 145.839 143.558 146.064 143.293C146.289 143.027 146.459 142.771 146.571 142.522C146.684 142.273 146.74 142.008 146.74 141.727C146.74 141.405 146.667 141.13 146.521 140.901C146.376 140.669 146.175 140.49 145.92 140.364C145.665 140.238 145.375 140.175 145.05 140.175C144.715 140.175 144.422 140.245 144.17 140.384C143.918 140.52 143.722 140.714 143.583 140.966C143.447 141.218 143.379 141.518 143.379 141.866H141.624C141.624 141.219 141.772 140.658 142.067 140.18C142.362 139.703 142.768 139.334 143.285 139.072C143.805 138.81 144.402 138.679 145.075 138.679C145.758 138.679 146.357 138.807 146.874 139.062C147.392 139.317 147.793 139.667 148.078 140.111C148.366 140.555 148.51 141.062 148.51 141.632C148.51 142.013 148.437 142.388 148.291 142.756C148.146 143.124 147.889 143.531 147.521 143.979C147.156 144.426 146.644 144.968 145.985 145.604L144.23 147.389V147.459H148.664V149H141.684ZM154.143 149.194C153.324 149.194 152.622 148.987 152.035 148.572C151.452 148.155 151.003 147.553 150.688 146.768C150.376 145.979 150.22 145.029 150.22 143.919C150.224 142.809 150.381 141.864 150.693 141.085C151.008 140.303 151.457 139.706 152.04 139.295C152.627 138.884 153.328 138.679 154.143 138.679C154.958 138.679 155.659 138.884 156.246 139.295C156.833 139.706 157.282 140.303 157.593 141.085C157.908 141.867 158.066 142.812 158.066 143.919C158.066 145.033 157.908 145.984 157.593 146.773C157.282 147.558 156.833 148.158 156.246 148.572C155.663 148.987 154.962 149.194 154.143 149.194ZM154.143 147.638C154.779 147.638 155.281 147.325 155.649 146.698C156.021 146.068 156.206 145.142 156.206 143.919C156.206 143.11 156.122 142.431 155.953 141.881C155.784 141.33 155.545 140.916 155.237 140.638C154.928 140.356 154.564 140.215 154.143 140.215C153.51 140.215 153.009 140.53 152.642 141.16C152.274 141.786 152.088 142.706 152.085 143.919C152.081 144.731 152.163 145.414 152.328 145.967C152.497 146.521 152.736 146.938 153.044 147.22C153.352 147.499 153.719 147.638 154.143 147.638Z" fill="#1D1D1D"/>
<rect x="122" y="174" width="41" height="28" rx="14" fill="#FFC56D"/>
<path d="M126.557 184.364V182.818H134.68V184.364H131.533V193H129.704V184.364H126.557ZM140.167 187.168V188.65H135.583V187.168H140.167ZM141.684 193V191.668L145.219 188.202C145.557 187.861 145.839 187.558 146.064 187.293C146.289 187.027 146.459 186.771 146.571 186.522C146.684 186.273 146.74 186.008 146.74 185.727C146.74 185.405 146.667 185.13 146.521 184.901C146.376 184.669 146.175 184.49 145.92 184.364C145.665 184.238 145.375 184.175 145.05 184.175C144.715 184.175 144.422 184.245 144.17 184.384C143.918 184.52 143.722 184.714 143.583 184.966C143.447 185.218 143.379 185.518 143.379 185.866H141.624C141.624 185.219 141.772 184.658 142.067 184.18C142.362 183.703 142.768 183.334 143.285 183.072C143.805 182.81 144.402 182.679 145.075 182.679C145.758 182.679 146.357 182.807 146.874 183.062C147.392 183.317 147.793 183.667 148.078 184.111C148.366 184.555 148.51 185.062 148.51 185.632C148.51 186.013 148.437 186.388 148.291 186.756C148.146 187.124 147.889 187.531 147.521 187.979C147.156 188.426 146.644 188.968 145.985 189.604L144.23 191.389V191.459H148.664V193H141.684ZM154.034 193.139C153.318 193.139 152.681 193.017 152.124 192.771C151.571 192.526 151.133 192.185 150.812 191.747C150.49 191.31 150.32 190.804 150.3 190.231H152.169C152.186 190.506 152.277 190.746 152.443 190.952C152.608 191.154 152.829 191.311 153.104 191.424C153.379 191.537 153.687 191.593 154.029 191.593C154.393 191.593 154.716 191.53 154.998 191.404C155.28 191.275 155.5 191.096 155.659 190.867C155.818 190.638 155.896 190.375 155.893 190.077C155.896 189.768 155.817 189.497 155.654 189.261C155.492 189.026 155.257 188.842 154.948 188.71C154.643 188.577 154.276 188.511 153.845 188.511H152.945V187.089H153.845C154.199 187.089 154.509 187.027 154.774 186.905C155.043 186.782 155.253 186.61 155.406 186.388C155.558 186.162 155.633 185.902 155.629 185.607C155.633 185.319 155.568 185.069 155.436 184.857C155.306 184.641 155.122 184.474 154.884 184.354C154.648 184.235 154.372 184.175 154.053 184.175C153.742 184.175 153.454 184.232 153.188 184.344C152.923 184.457 152.709 184.618 152.547 184.827C152.385 185.032 152.298 185.277 152.289 185.562H150.514C150.527 184.992 150.691 184.492 151.006 184.061C151.324 183.627 151.748 183.289 152.279 183.047C152.809 182.802 153.404 182.679 154.063 182.679C154.743 182.679 155.333 182.807 155.833 183.062C156.337 183.314 156.727 183.653 157.002 184.081C157.277 184.509 157.414 184.981 157.414 185.498C157.418 186.071 157.249 186.552 156.907 186.94C156.569 187.327 156.125 187.581 155.575 187.7V187.78C156.291 187.879 156.839 188.144 157.22 188.575C157.605 189.003 157.795 189.535 157.792 190.171C157.792 190.741 157.63 191.252 157.305 191.702C156.983 192.15 156.539 192.501 155.972 192.756C155.409 193.012 154.763 193.139 154.034 193.139Z" fill="#1D1D1D"/>
<rect x="122" y="218" width="41" height="28" rx="14" fill="#FFC56D"/>
<path d="M126.557 228.364V226.818H134.68V228.364H131.533V237H129.704V228.364H126.557ZM140.167 231.168V232.65H135.583V231.168H140.167ZM141.684 237V235.668L145.219 232.202C145.557 231.861 145.839 231.558 146.064 231.293C146.289 231.027 146.459 230.771 146.571 230.522C146.684 230.273 146.74 230.008 146.74 229.727C146.74 229.405 146.667 229.13 146.521 228.901C146.376 228.669 146.175 228.49 145.92 228.364C145.665 228.238 145.375 228.175 145.05 228.175C144.715 228.175 144.422 228.245 144.17 228.384C143.918 228.52 143.722 228.714 143.583 228.966C143.447 229.218 143.379 229.518 143.379 229.866H141.624C141.624 229.219 141.772 228.658 142.067 228.18C142.362 227.703 142.768 227.334 143.285 227.072C143.805 226.81 144.402 226.679 145.075 226.679C145.758 226.679 146.357 226.807 146.874 227.062C147.392 227.317 147.793 227.667 148.078 228.111C148.366 228.555 148.51 229.062 148.51 229.632C148.51 230.013 148.437 230.388 148.291 230.756C148.146 231.124 147.889 231.531 147.521 231.979C147.156 232.426 146.644 232.968 145.985 233.604L144.23 235.389V235.459H148.664V237H141.684ZM149.977 235.111V233.644L154.297 226.818H155.52V228.906H154.774L151.866 233.515V233.594H157.896V235.111H149.977ZM154.834 237V234.663L154.854 234.007V226.818H156.594V237H154.834Z" fill="#1D1D1D"/>
<rect x="229" y="263" width="30" height="28" rx="14" fill="#FFC56D"/>
<path d="M233.557 273.364V271.818H241.68V273.364H238.533V282H236.704V273.364H233.557ZM247.167 276.168V277.65H242.583V276.168H247.167ZM253.181 271.818V282H251.336V273.613H251.277L248.895 275.134V273.444L251.426 271.818H253.181Z" fill="#1D1D1D"/>
<rect x="278" y="263" width="32" height="28" rx="14" fill="#FFC56D"/>
<path d="M282.557 273.364V271.818H290.68V273.364H287.533V282H285.704V273.364H282.557ZM296.167 276.168V277.65H291.583V276.168H296.167ZM297.684 282V280.668L301.219 277.202C301.557 276.861 301.839 276.558 302.064 276.293C302.289 276.027 302.459 275.771 302.571 275.522C302.684 275.273 302.74 275.008 302.74 274.727C302.74 274.405 302.667 274.13 302.521 273.901C302.376 273.669 302.175 273.49 301.92 273.364C301.665 273.238 301.375 273.175 301.05 273.175C300.715 273.175 300.422 273.245 300.17 273.384C299.918 273.52 299.722 273.714 299.583 273.966C299.447 274.218 299.379 274.518 299.379 274.866H297.624C297.624 274.219 297.772 273.658 298.067 273.18C298.362 272.703 298.768 272.334 299.285 272.072C299.805 271.81 300.402 271.679 301.075 271.679C301.758 271.679 302.357 271.807 302.874 272.062C303.392 272.317 303.793 272.667 304.078 273.111C304.366 273.555 304.51 274.062 304.51 274.632C304.51 275.013 304.437 275.388 304.291 275.756C304.146 276.124 303.889 276.531 303.521 276.979C303.156 277.426 302.644 277.968 301.985 278.604L300.23 280.389V280.459H304.664V282H297.684Z" fill="#1D1D1D"/>
<rect x="278" y="218" width="33" height="28" rx="14" fill="#FFC56D"/>
<path d="M282.557 228.364V226.818H290.68V228.364H287.533V237H285.704V228.364H282.557ZM296.167 231.168V232.65H291.583V231.168H296.167ZM297.856 235.111V233.644L302.176 226.818H303.399V228.906H302.653L299.745 233.515V233.594H305.775V235.111H297.856ZM302.713 237V234.663L302.733 234.007V226.818H304.473V237H302.713Z" fill="#1D1D1D"/>
<rect x="229" y="218" width="33" height="28" rx="14" fill="#FFC56D"/>
<path d="M233.557 228.364V226.818H241.68V228.364H238.533V237H236.704V228.364H233.557ZM247.167 231.168V232.65H242.583V231.168H247.167ZM252.598 237.139C251.882 237.139 251.246 237.017 250.689 236.771C250.135 236.526 249.698 236.185 249.376 235.747C249.055 235.31 248.884 234.804 248.864 234.231H250.734C250.75 234.506 250.841 234.746 251.007 234.952C251.173 235.154 251.393 235.311 251.668 235.424C251.943 235.537 252.252 235.593 252.593 235.593C252.958 235.593 253.281 235.53 253.562 235.404C253.844 235.275 254.065 235.096 254.224 234.867C254.383 234.638 254.461 234.375 254.457 234.077C254.461 233.768 254.381 233.497 254.219 233.261C254.056 233.026 253.821 232.842 253.513 232.71C253.208 232.577 252.84 232.511 252.409 232.511H251.509V231.089H252.409C252.764 231.089 253.074 231.027 253.339 230.905C253.607 230.782 253.818 230.61 253.97 230.388C254.123 230.162 254.197 229.902 254.194 229.607C254.197 229.319 254.133 229.069 254 228.857C253.871 228.641 253.687 228.474 253.448 228.354C253.213 228.235 252.936 228.175 252.618 228.175C252.306 228.175 252.018 228.232 251.753 228.344C251.488 228.457 251.274 228.618 251.112 228.827C250.949 229.032 250.863 229.277 250.853 229.562H249.078C249.091 228.992 249.255 228.492 249.57 228.061C249.888 227.627 250.313 227.289 250.843 227.047C251.373 226.802 251.968 226.679 252.628 226.679C253.307 226.679 253.897 226.807 254.398 227.062C254.902 227.314 255.291 227.653 255.566 228.081C255.841 228.509 255.979 228.981 255.979 229.498C255.982 230.071 255.813 230.552 255.472 230.94C255.134 231.327 254.689 231.581 254.139 231.7V231.78C254.855 231.879 255.404 232.144 255.785 232.575C256.169 233.003 256.36 233.535 256.357 234.171C256.357 234.741 256.194 235.252 255.869 235.702C255.548 236.15 255.104 236.501 254.537 236.756C253.973 237.012 253.327 237.139 252.598 237.139Z" fill="#1D1D1D"/>
<rect x="229" y="174" width="32" height="28" rx="14" fill="#FFC56D"/>
<path d="M233.557 184.364V182.818H241.68V184.364H238.533V193H236.704V184.364H233.557ZM247.167 187.168V188.65H242.583V187.168H247.167ZM252.579 193.139C251.916 193.139 251.323 193.015 250.8 192.766C250.276 192.514 249.86 192.17 249.552 191.732C249.247 191.295 249.084 190.794 249.064 190.231H250.854C250.887 190.648 251.068 190.99 251.396 191.255C251.724 191.517 252.119 191.648 252.579 191.648C252.941 191.648 253.262 191.565 253.544 191.399C253.826 191.233 254.048 191.003 254.21 190.708C254.372 190.413 254.452 190.077 254.449 189.699C254.452 189.314 254.371 188.973 254.205 188.675C254.039 188.376 253.812 188.143 253.524 187.974C253.236 187.801 252.904 187.715 252.53 187.715C252.225 187.712 251.925 187.768 251.63 187.884C251.335 188 251.101 188.153 250.929 188.342L249.263 188.068L249.795 182.818H255.702V184.359H251.322L251.028 187.059H251.088C251.277 186.837 251.544 186.653 251.888 186.507C252.233 186.358 252.611 186.283 253.022 186.283C253.638 186.283 254.189 186.429 254.672 186.721C255.156 187.009 255.537 187.407 255.816 187.914C256.094 188.421 256.233 189.001 256.233 189.654C256.233 190.327 256.078 190.927 255.766 191.454C255.458 191.978 255.029 192.39 254.479 192.692C253.932 192.99 253.299 193.139 252.579 193.139Z" fill="#1D1D1D"/>
<rect x="278" y="174" width="33" height="28" rx="14" fill="#FFC56D"/>
<path d="M282.557 184.364V182.818H290.68V184.364H287.533V193H285.704V184.364H282.557ZM296.167 187.168V188.65H291.583V187.168H296.167ZM301.768 193.139C301.281 193.136 300.805 193.051 300.341 192.886C299.877 192.717 299.46 192.443 299.089 192.065C298.717 191.684 298.422 191.179 298.204 190.549C297.985 189.916 297.877 189.132 297.881 188.197C297.881 187.326 297.973 186.549 298.159 185.866C298.345 185.183 298.611 184.606 298.959 184.136C299.307 183.662 299.727 183.3 300.217 183.052C300.711 182.803 301.263 182.679 301.873 182.679C302.512 182.679 303.079 182.805 303.573 183.057C304.07 183.309 304.471 183.653 304.776 184.091C305.081 184.525 305.27 185.016 305.343 185.562H303.528C303.435 185.171 303.245 184.86 302.956 184.628C302.671 184.393 302.31 184.275 301.873 184.275C301.167 184.275 300.623 184.581 300.242 185.195C299.864 185.808 299.674 186.65 299.67 187.72H299.74C299.902 187.429 300.113 187.178 300.371 186.969C300.63 186.761 300.921 186.6 301.246 186.487C301.574 186.371 301.921 186.313 302.285 186.313C302.882 186.313 303.417 186.456 303.891 186.741C304.368 187.026 304.746 187.419 305.025 187.919C305.303 188.416 305.441 188.986 305.437 189.629C305.441 190.299 305.288 190.9 304.98 191.434C304.672 191.964 304.242 192.382 303.692 192.687C303.142 192.992 302.501 193.143 301.768 193.139ZM301.758 191.648C302.12 191.648 302.443 191.56 302.728 191.384C303.013 191.209 303.238 190.972 303.404 190.673C303.57 190.375 303.651 190.04 303.648 189.669C303.651 189.304 303.571 188.975 303.409 188.68C303.25 188.385 303.029 188.151 302.748 187.979C302.466 187.806 302.144 187.72 301.783 187.72C301.515 187.72 301.265 187.772 301.032 187.874C300.8 187.977 300.598 188.12 300.426 188.302C300.254 188.481 300.118 188.69 300.018 188.928C299.922 189.164 299.872 189.415 299.869 189.684C299.872 190.039 299.955 190.365 300.118 190.663C300.28 190.962 300.504 191.2 300.789 191.379C301.074 191.558 301.397 191.648 301.758 191.648Z" fill="#1D1D1D"/>
<defs>
<clipPath id="clip0_782_5926">
<rect width="71" height="71" fill="white" transform="translate(29 220)"/>
</clipPath>
</defs>
</svg>
