<svg width="32" height="32" viewBox="0 0 32 32" fill="none" xmlns="http://www.w3.org/2000/svg">
<g clip-path="url(#clip0_398_2956)">
<path d="M30.9564 14.2608H1.04344C0.687502 14.2608 0.356252 14.0794 0.164315 13.7798C-0.027248 13.4799 -0.0530605 13.1031 0.0960645 12.7802L4.27 3.73668C4.4405 3.36706 4.81038 3.13037 5.21731 3.13037H26.7825C27.1894 3.13037 27.5593 3.36712 27.7298 3.73668L31.9038 12.7802C32.0529 13.1032 32.027 13.4799 31.8355 13.7798C31.6436 14.0794 31.3124 14.2608 30.9564 14.2608Z" fill="#CC7F0A"/>
<path d="M28.8698 28.8696H24.6958C24.1194 28.8696 23.6523 28.4026 23.6523 27.8262V17.3914C23.6523 16.815 24.1194 16.3479 24.6958 16.3479H28.8698C29.4462 16.3479 29.9133 16.815 29.9133 17.3914V27.8262C29.9133 28.4026 29.4462 28.8696 28.8698 28.8696Z" fill="#663F05"/>
<path d="M28.8692 16.3479H26.7822V28.8696H28.8692C29.4456 28.8696 29.9127 28.4026 29.9127 27.8262V17.3914C29.9127 16.815 29.4456 16.3479 28.8692 16.3479Z" fill="#331F02"/>
<path d="M7.30435 28.8696H3.13041C2.55398 28.8696 2.08691 28.4026 2.08691 27.8262V17.3914C2.08691 16.815 2.55398 16.3479 3.13041 16.3479H7.30435C7.88079 16.3479 8.34785 16.815 8.34785 17.3914V27.8262C8.34779 28.4026 7.88073 28.8696 7.30435 28.8696Z" fill="#663F05"/>
<path d="M7.30477 16.3479H5.21777V28.8696H7.30471C7.88115 28.8696 8.34821 28.4026 8.34821 27.8262V17.3914C8.34821 16.815 7.88115 16.3479 7.30477 16.3479Z" fill="#331F02"/>
<path d="M30.9565 18.4348H1.0435C0.467062 18.4348 0 17.9673 0 17.3913V13.2173C0 12.6409 0.467062 12.1738 1.0435 12.1738H30.9566C31.533 12.1738 32.0001 12.6409 32.0001 13.2173V17.3913C32 17.9673 31.5329 18.4348 30.9565 18.4348Z" fill="#FF9F0D"/>
<path d="M30.9565 12.1738H16V18.4347H30.9565C31.5329 18.4347 32 17.9673 32 17.3912V13.2173C32 12.6409 31.5329 12.1738 30.9565 12.1738Z" fill="#995F07"/>
</g>
<defs>
<clipPath id="clip0_398_2956">
<rect width="32" height="32" fill="white"/>
</clipPath>
</defs>
</svg>
