<svg width="48" height="48" viewBox="0 0 48 48" fill="none" xmlns="http://www.w3.org/2000/svg">
<path d="M25.8749 7.65757C25.8739 7.34394 25.7487 7.0435 25.5265 6.82208C25.3044 6.60066 25.0036 6.47632 24.6899 6.47632H24.5624C24.407 6.47583 24.253 6.50602 24.1092 6.56516C23.9655 6.62431 23.8348 6.71124 23.7247 6.82098C23.6147 6.93071 23.5273 7.0611 23.4677 7.20466C23.4081 7.34822 23.3774 7.50213 23.3774 7.65757V8.96632H25.8749V7.65757Z" fill="#FF9F0D"/>
<path d="M24.5325 10.6501C21.0604 10.6542 17.7213 11.986 15.1995 14.3726C12.6777 16.7591 11.164 20.0198 10.9688 23.4864H38.0962C37.901 20.0198 36.3873 16.7591 33.8655 14.3726C31.3437 11.986 28.0046 10.6542 24.5325 10.6501Z" fill="#FF9F0D"/>
<path d="M18.1689 40.0876H6.94141V43.7101H18.1689V40.0876Z" fill="#FF9F0D"/>
<path d="M38.5952 24.9863H10.4702C10.2631 24.9863 10.0952 25.1542 10.0952 25.3613V25.7926C10.0952 25.9997 10.2631 26.1676 10.4702 26.1676H38.5952C38.8023 26.1676 38.9702 25.9997 38.9702 25.7926V25.3613C38.9702 25.1542 38.8023 24.9863 38.5952 24.9863Z" fill="#FF9F0D"/>
<path d="M36.0414 30.3189C34.8071 30.7028 33.6027 31.1765 32.4376 31.7364L31.6876 32.0776C30.4089 32.6401 27.1426 32.5689 21.9076 32.3776C18.8551 32.2689 15.6976 32.1564 13.4626 32.2951C8.86889 32.5839 8.82764 36.4201 8.82764 36.6489L8.86889 38.5876H16.4476C16.8564 37.4101 18.0864 35.9101 20.8614 35.9101C24.4989 35.9101 29.8914 35.1601 32.1489 34.1251C33.8814 33.3151 35.5576 31.4439 36.2326 30.6189C36.2574 30.5883 36.272 30.5507 36.2742 30.5114C36.2765 30.4721 36.2663 30.4331 36.2451 30.3999C36.224 30.3668 36.1929 30.3411 36.1564 30.3265C36.1198 30.312 36.0796 30.3093 36.0414 30.3189Z" fill="#FF9F0D"/>
<path d="M40.4701 26.1188V26.1975C40.4691 26.5871 40.3139 26.9604 40.0384 27.2359C39.7629 27.5113 39.3896 27.6665 39.0001 27.6675H10.0651C9.67549 27.6665 9.30217 27.5113 9.02671 27.2359C8.75124 26.9604 8.59605 26.5871 8.59506 26.1975V25.875C4.33131 26.7487 3.43506 27.705 3.43506 27.9263C3.43506 28.2675 5.27631 29.8425 13.7813 30.7388C13.8286 30.743 13.8752 30.753 13.9201 30.7688C16.1701 30.6713 19.0951 30.7687 21.9413 30.8812C25.7213 31.0162 30.0038 31.17 31.0576 30.705L31.8076 30.3675C34.4626 29.175 36.3076 28.4213 37.4663 28.8225C37.6707 28.8868 37.8501 29.013 37.9797 29.1836C38.1094 29.3542 38.1829 29.5608 38.1901 29.775C38.1958 29.9209 38.1768 30.0667 38.1338 30.2063C43.4176 29.3025 44.5501 28.1963 44.5501 27.9263C44.5651 27.75 43.8451 26.9213 40.4701 26.1188Z" fill="#FF9F0D"/>
<path d="M31.0988 9.10884C31.0307 9.03747 30.9774 8.95339 30.9419 8.86141C30.9064 8.76942 30.8894 8.67134 30.8918 8.57277C30.8943 8.4742 30.9161 8.37708 30.9561 8.28696C30.9961 8.19684 31.0535 8.1155 31.125 8.04759C31.2141 7.96606 31.2854 7.86703 31.3344 7.75669C31.3834 7.64635 31.4092 7.52708 31.41 7.40634C31.4106 7.28317 31.3855 7.16124 31.3365 7.04826C31.2874 6.93529 31.2154 6.83375 31.125 6.75009L30.795 6.44259C30.5555 6.22203 30.3643 5.95419 30.2335 5.65599C30.1027 5.35779 30.0352 5.03571 30.0352 4.71009C30.0352 4.38446 30.1027 4.06238 30.2335 3.76418C30.3643 3.46598 30.5555 3.19814 30.795 2.97759C30.8658 2.90557 30.9503 2.84858 31.0436 2.81002C31.1369 2.77147 31.237 2.75215 31.338 2.75322C31.4389 2.75428 31.5386 2.77572 31.6311 2.81624C31.7236 2.85676 31.8069 2.91553 31.8761 2.98903C31.9453 3.06253 31.9989 3.14925 32.0338 3.24398C32.0687 3.33871 32.0841 3.43951 32.0791 3.54034C32.0741 3.64116 32.0488 3.73994 32.0047 3.83076C31.9606 3.92157 31.8987 4.00255 31.8225 4.06884C31.7322 4.14905 31.6598 4.24751 31.6103 4.35772C31.5608 4.46793 31.5352 4.58738 31.5352 4.70821C31.5352 4.82904 31.5608 4.94849 31.6103 5.0587C31.6598 5.16891 31.7322 5.26737 31.8225 5.34759L32.1525 5.65884C32.3911 5.87999 32.5814 6.14802 32.7115 6.44614C32.8417 6.74426 32.9088 7.06605 32.9088 7.39134C32.9088 7.71662 32.8417 8.03841 32.7115 8.33653C32.5814 8.63465 32.3911 8.90268 32.1525 9.12384C32.0053 9.25043 31.8169 9.31879 31.6228 9.31602C31.4287 9.31326 31.2423 9.23957 31.0988 9.10884Z" fill="#FF9F0D"/>
<path d="M34.7062 9.1088C34.6384 9.0372 34.5854 8.95292 34.5502 8.8608C34.515 8.76868 34.4983 8.67053 34.5011 8.57196C34.5039 8.47338 34.5261 8.37633 34.5664 8.28634C34.6068 8.19636 34.6645 8.11522 34.7362 8.04755C34.8253 7.96603 34.8966 7.867 34.9456 7.75666C34.9946 7.64632 35.0204 7.52705 35.0212 7.4063C35.0218 7.28314 34.9967 7.1612 34.9477 7.04823C34.8986 6.93526 34.8266 6.83372 34.7362 6.75005L34.4062 6.44255C34.1677 6.2214 33.9774 5.95337 33.8472 5.65525C33.7171 5.35713 33.6499 5.03534 33.6499 4.71005C33.6499 4.38476 33.7171 4.06298 33.8472 3.76486C33.9774 3.46674 34.1677 3.19871 34.4062 2.97755C34.5509 2.8408 34.744 2.76713 34.9431 2.77276C35.1421 2.77839 35.3307 2.86284 35.4675 3.00755C35.6042 3.15226 35.6779 3.34537 35.6723 3.54439C35.6666 3.74341 35.5822 3.93205 35.4375 4.0688C35.3476 4.14934 35.2758 4.24791 35.2266 4.35807C35.1774 4.46824 35.152 4.58753 35.152 4.70818C35.152 4.82882 35.1774 4.94812 35.2266 5.05828C35.2758 5.16845 35.3476 5.26701 35.4375 5.34755L35.7675 5.6588C36.006 5.87996 36.1963 6.14799 36.3265 6.44611C36.4566 6.74423 36.5238 7.06601 36.5238 7.3913C36.5238 7.71659 36.4566 8.03838 36.3265 8.3365C36.1963 8.63462 36.006 8.90265 35.7675 9.1238C35.6191 9.25094 35.4294 9.31956 35.234 9.3168C35.0386 9.31404 34.851 9.24008 34.7062 9.1088Z" fill="#FF9F0D"/>
<path d="M13.6014 9.1088C13.5336 9.0372 13.4806 8.95292 13.4454 8.8608C13.4102 8.76868 13.3935 8.67053 13.3963 8.57196C13.3991 8.47338 13.4213 8.37633 13.4616 8.28634C13.5019 8.19636 13.5596 8.11522 13.6314 8.04755C13.7204 7.96603 13.7917 7.867 13.8408 7.75666C13.8898 7.64632 13.9155 7.52705 13.9164 7.4063C13.9169 7.28314 13.8919 7.1612 13.8428 7.04823C13.7938 6.93526 13.7217 6.83372 13.6314 6.75005L13.3014 6.44255C13.0618 6.222 12.8706 5.95416 12.7398 5.65596C12.609 5.35776 12.5415 5.03567 12.5415 4.71005C12.5415 4.38443 12.609 4.06235 12.7398 3.76415C12.8706 3.46595 13.0618 3.19811 13.3014 2.97755C13.4461 2.8408 13.6392 2.76713 13.8382 2.77276C14.0372 2.77839 14.2259 2.86284 14.3626 3.00755C14.4994 3.15226 14.573 3.34537 14.5674 3.54439C14.5618 3.74341 14.4773 3.93205 14.3326 4.0688C14.2423 4.14956 14.17 4.24835 14.1202 4.35881C14.0705 4.46926 14.0445 4.58892 14.0439 4.71005C14.0463 4.83032 14.0732 4.94884 14.1228 5.05842C14.1725 5.168 14.2438 5.26637 14.3326 5.34755L14.6626 5.6588C14.9012 5.87996 15.0915 6.14799 15.2216 6.44611C15.3517 6.74423 15.4189 7.06601 15.4189 7.3913C15.4189 7.71659 15.3517 8.03838 15.2216 8.3365C15.0915 8.63462 14.9012 8.90265 14.6626 9.1238C14.5096 9.24059 14.3218 9.3026 14.1294 9.29988C13.9369 9.29716 13.751 9.22987 13.6014 9.1088Z" fill="#FF9F0D"/>
<path d="M17.2086 9.1088C17.0785 8.96018 17.0103 8.76735 17.018 8.56996C17.0256 8.37258 17.1086 8.18563 17.2499 8.04755C17.3402 7.9668 17.4125 7.868 17.4623 7.75755C17.512 7.64709 17.538 7.52744 17.5386 7.4063C17.5385 7.2829 17.5128 7.16086 17.4631 7.04791C17.4134 6.93495 17.3408 6.83353 17.2499 6.75005L16.9199 6.44255C16.6813 6.2214 16.491 5.95337 16.3609 5.65525C16.2307 5.35713 16.1636 5.03534 16.1636 4.71005C16.1636 4.38476 16.2307 4.06298 16.3609 3.76486C16.491 3.46674 16.6813 3.19871 16.9199 2.97755C17.0646 2.8408 17.2577 2.76713 17.4567 2.77276C17.6557 2.77839 17.8444 2.86284 17.9811 3.00755C18.1179 3.15226 18.1916 3.34537 18.1859 3.54439C18.1803 3.74341 18.0958 3.93205 17.9511 4.0688C17.8613 4.14934 17.7895 4.24791 17.7403 4.35807C17.6911 4.46824 17.6657 4.58753 17.6657 4.70818C17.6657 4.82882 17.6911 4.94812 17.7403 5.05828C17.7895 5.16845 17.8613 5.26701 17.9511 5.34755L18.2811 5.6588C18.5207 5.87936 18.7119 6.1472 18.8427 6.4454C18.9735 6.7436 19.041 7.06568 19.041 7.3913C19.041 7.71692 18.9735 8.03901 18.8427 8.33721C18.7119 8.63541 18.5207 8.90325 18.2811 9.1238C18.2103 9.19427 18.1261 9.24987 18.0335 9.28734C17.9408 9.32481 17.8416 9.34339 17.7417 9.34199C17.6418 9.34059 17.5432 9.31925 17.4516 9.2792C17.3601 9.23916 17.2775 9.18122 17.2086 9.1088Z" fill="#FF9F0D"/>
</svg>
