<svg width="313" height="36" viewBox="0 0 313 36" fill="none" xmlns="http://www.w3.org/2000/svg">
<path fill-rule="evenodd" clip-rule="evenodd" d="M313 15.8201L299.958 17.1957C286.917 18.4338 260.833 21.1851 234.75 25.037C208.667 29.0264 182.583 34.3915 156.5 35.6295C130.417 37.0052 104.333 34.3915 78.25 30.402C52.1667 26.4126 26.0833 21.1851 13.0417 18.4338L0 15.8201V0H13.0417C26.0833 0 52.1667 0 78.25 0C104.333 0 130.417 0 156.5 0C182.583 0 208.667 0 234.75 0C260.833 0 286.917 0 299.958 0H313V15.8201Z" fill="#1E1E1E"/>
</svg>
